<svg height="960" viewBox="0 0 960 960" width="960" xmlns="http://www.w3.org/2000/svg"><g fill="none" fill-rule="evenodd"><path d="m481.615637 481.728646c2.685227 6.108763 8.307849 18.643534 9.90539 21.150229 2.22181 3.486234 10.538197 11.939026 11.652917 12.955386 4.00864 3.654927 6.40317 8.279977 6.40317 13.310018 0 11.828785-13.242125 21.41791-29.577114 21.41791s-29.577114-9.589125-29.577114-21.41791c0-5.244888 2.603453-10.04945 6.925605-13.773002 1.063349-.916074 6.466575-7.341832 9.588316-12.492402 3.121741-5.150569 8.476245-15.430927 11.136731-21.466843.484716-1.099688 3.012239-.888791 3.542099.316614z" fill="#000"/><g stroke="#000" stroke-linecap="round" stroke-linejoin="round"><path d="m25.1243781 438.883085c0 152.36602 203.6547529 275.883084 454.8756219 275.883084s454.875622-123.517064 454.875622-275.883084" stroke-width="20"/><ellipse cx="480" cy="470.5" rx="457.935323" ry="307.5" stroke-width="40"/></g></g></svg>