<svg height="960" viewBox="0 0 960 960" width="960" xmlns="http://www.w3.org/2000/svg"><path d="m1113.38219 647.642222c30.17289 3.159088 57.90786 10.450513 85.30245 23.033849 3.29905 1.515374 7.2484 3.195098 12.56553 5.358335 1.31564.535256 4.18903 1.690112 7.16048 2.882402l.74406.298515c.45861.183972.91666.367682 1.36882.549001l.89488.358823c1.62042.649688 3.11381 1.248183 4.21727 1.690633l.39946.160185c.6328.253785 1.09635.439857 1.32416.531696 15.65764 6.312296 27.00245 11.236361 38.7039 17.0542 31.02721 15.426409 55.84275 33.328402 75.1176 56.919743 24.19776 29.61671 37.18324 65.89056 37.18324 108.605117 0 11.044588-.07193 21.75093-.21804 32.395228l-.04377 3.039779-.04782 3.037833c-.00831.506223-.01678 1.012425-.02543 1.518635l-.05391 3.0376c-.01865 1.012726-.03798 2.025725-.05799 3.039234l-.06208 3.0423c-.62009 29.436782-1.81541 59.504268-3.63346 96.02655l-.09298 1.86266c-3.13208 62.57231-3.89203 77.7789-4.0764 91.82958l-.01339 1.1077-.00586.55363-.006.50807.00005.14838c-.00069.86107-.00201 1.79776-.0039 2.79972l-.00099.50638c-.00438 2.15497-.0111 4.50149-.01832 6.53675-.00294.82835-.00574 1.53947-.00788 2.00693l-.0007.14659-.00026.05516-.00066.12681-.00034.05916-.00098.15747-.00013.0186-.0006.07247-.00057.05908-.00043.04419-.00038.03432-.00071.0576c-.00058.04095-.0015.09695-.00364.2276-.00315.17554-.00315.17554-.01753.65365-.00174.05324-.00323.09888-.0048.1425l-.00334.08619c-.00974.23151-.02805.5115-.10495 1.68748l-.16755 1.61684-3.23239 10.13313-.09832.57592c-8.55307 48.86325-30.55798 91.66392-64.4838 127.66265l-1.2465 1.31399c-36.52078 38.24603-85.66243 67.82856-144.68192 89.33692-98.42836 35.87006-147.92177 49.91677-202.964673 58.1853-5.188451.7794-10.710979 1.69179-17.947083 2.94937-1.281376.2227-5.216488.91477-9.336348 1.63869l-.774036.136-.908134.15953c-3.626727.63706-7.137104 1.2528-8.852538 1.54977-27.901089 4.83012-48.616635 7.64937-72.541053 9.33869-30.724867 2.1695-62.446911 1.89706-97.12587-1.25911-32.435454-2.95198-71.81161-11.67241-110.130934-25.67031-49.009012-17.9028-93.762231-43.28089-130.853837-76.71129-20.376211-18.36492-36.106973-48.62858-49.887792-91.72932-.748376-2.34061-1.279472-4.74521-1.586553-7.18329-8.591248-68.21049-14.38479-125.72861-17.37544-172.64831-2.972795-46.63959-5.926799-126.067163-8.885347-238.596702-.013817-.697898-.013817-1.396157-.000223-2.094058.976347-37.439311 17.954744-68.81727 48.848085-90.725822 27.018154-19.160396 63.911806-30.728678 110.790406-36.008022 99.754218-11.234056 344.930272-30.497071 443.4843-36.443384 34.227-2.065105 58.97004-2.162098 83.48389.40449zm223.92115 287.030137-.26629.095365c-8.72111 3.114957-20.5168 5.89817-35.51747 8.434373-25.51598 4.314052-120.84343 19.385734-216.39728 34.172419l-7.16588 1.108295c-21.49238 3.322245-42.90815 6.616086-63.4547 9.755741-159.801809 24.418818-268.538244 39.954548-295.472942 41.638138-39.52298 2.47044-73.053835 2.86803-100.632845 1.1791.833355 20.83696 1.79405 39.7948 2.882663 56.87384 2.431133 38.14155 5.581709 101.03563 9.45173 188.68225 9.714774 30.69129 20.37256 51.19529 31.973358 61.51201 53.776532 47.82405 139.19325 51.94629 213.116725 44.54142 26.808349-3.63489 49.635443-8.44404 71.218174-11.68619 45.502949-6.83544 87.716427-17.69065 174.738767-48.81686 13.92442-5.48536 29.43969-11.49777 47.03726-17.99454 53.3574-23.25634 98.97371-55.89265 127.99449-100.31275 19.10537-30.62959 31.06318-65.8222 33.18401-103.24734.00158-.02778.00308-.0447.0045-.05128.01568-.14372.02429.79044.02787 2.29788l.00084.41871c.00012.07196.00023.14499.00033.21903l.00005 3.01336-.00076.67838c-.00072.57122-.00166 1.15582-.00276 1.74356l-.00139.70615-.00245.72676.01231-.99242c.02076-1.58578.04968-3.1439.08619-4.67836.79104-45.41137 5.14209-100.96317 7.1855-170.017041zm-861.723269 113.888931c2.932541 46.00805 8.64684 102.73944 17.142896 170.19415 11.809673 36.93581 24.665573 61.66866 38.567699 74.19854 42.640064 38.43118 94.074031 62.12766 139.007586 75.98984-7.387081-4.78159-14.353852-10.06633-20.885368-15.87488-14.918765-13.26742-27.040981-36.58877-37.750142-70.42156-.528719-1.67035-.835663-3.40293-.912948-5.15326-3.864676-87.52557-7.009929-150.31339-9.430694-188.29228-1.234884-19.37385-2.305362-41.11388-3.212597-65.22449l-126.204921-50.358929c1.227357 30.743629 2.45352 55.724579 3.678489 74.942869zm709.822719 116.45647c17.21419 5.75852 24.7356 26.07248 18.09538 44.8079-6.59988 18.62159-25.1382 29.9702-42.19821 24.26325-17.21419-5.75852-24.7356-26.07248-18.09538-44.80789 6.59988-18.6216 25.1382-29.97021 42.19821-24.26326zm-23.34717 30.94446c-3.16725 8.9364-.08472 17.26176 5.58918 19.1598 5.82807 1.94962 13.79474-2.92734 17.00233-11.97756 3.16725-8.93641.08472-17.26176-5.58918-19.15981-5.82808-1.94962-13.79475 2.92734-17.00233 11.97757zm183.05459-58.46682 1.99581-.79563 3.51389-1.91225-4.77261-.83994c-.23665 1.1851-.48236 2.36774-.73709 3.54782zm-87.17384-44.09619c.71111 10.16939-6.60438 19.7792-16.58992 22.1786l-40.70684 9.78132c-11.20591 2.69263-21.77925-4.65562-22.58403-16.16452-.71112-10.1694 6.60437-19.77921 16.58992-22.17861l40.70683-9.78131c11.20592-2.69264 21.77926 4.65561 22.58404 16.16452zm-127.41348-330.737149c-45.18087 2.726013-314.581136 38.985239-411.828741 58.904589-64.831737 13.279567-99.096745 54.555425-102.795025 123.827575.470483 23.16693 1.046791 44.779549 1.728925 64.837855l2.185866.87196.617574.03821c26.150911 1.55416 58.081528 1.18246 95.75437-1.12783l1.595228-.09877c26.00666-1.62558 135.080371-17.209499 293.699563-41.44761 20.52879-3.136942 41.92736-6.428142 63.4027-9.74775l10.74039-1.661588c94.26847-14.595603 187.46966-29.334358 212.56171-33.576736 15.81447-2.673794 27.48756-5.575638 34.82462-8.57905 2.08343-.852852 3.70815-1.672088 4.85422-2.394665.22771-11.010451.38814-22.348244.45897-34.022972-1.11838-27.260537-4.09236-48.921672-9.69671-65.895955-5.53363-13.490277-13.15427-25.078436-22.12189-35.135002-4.38921-3.705372-9.31009-6.793179-14.81287-9.320807-40.60658-18.652093-115.98802-8.197468-161.1689-5.471454zm-98.21554-75.496938c-54.499205 3.28824-319.225212 22.503817-441.416953 36.264727-81.46116 9.173941-122.837321 38.516567-124.128482 88.027879 1.435688 54.60698 2.869752 101.371549 4.30219 140.293708l126.285939 50.390223c-.561493-17.64454-1.045004-36.424506-1.45092-56.341351 0-.490905 0-.982011.028442-1.472319 4.175641-78.21356 44.856671-127.218202 118.753283-142.354538 45.012878-9.220045 130.114898-22.623875 226.685677-36.114263 86.610704-12.099023 164.844934-21.766655 187.951844-23.160824 4.1834-.252407 8.83364-.584057 14.79876-1.046943 3.40124-.263932 15.695-1.247458 16.65681-1.323495 16.13228-1.27536 27.86359-2.066404 39.22419-2.54446l1.48004-.060595c.73931-.029423 1.47778-.057547 2.21653-.08442l1.47823-.052089.74002-.024819c18.28713-.603001 34.52296-.288438 48.94189 1.19977-26.64325-14.084519-54.06032-23.098096-72.86652-31.736476-48.98149-22.498992-95.18177-23.147955-149.68097-19.859715zm-229.107172 148.741412c5.120712 30.235909 8.471071 53.571495 10.065791 70.176579 1.596318 16.608098 2.780622 40.516171 3.564328 71.798452.13832 5.521115-4.225299 10.108993-9.746414 10.247312s-10.108993-4.225299-10.247312-9.746414c-.772899-30.850877-1.936313-54.337245-3.478928-70.386609-1.540373-16.039198-4.829262-38.946639-9.876668-68.749703-.922209-5.445307 2.744486-10.6072 8.189793-11.529409 5.445308-.92221 10.607201 2.744485 11.52941 8.189792zm55.049293-7.063775c5.121841 29.809233 8.473016 52.816671 10.068488 69.193173 1.597096 16.379532 2.781701 39.95528 3.565564 70.802513.140297 5.521065-4.221678 10.110505-9.742744 10.250802-5.521065.140296-10.110505-4.221679-10.250802-9.742744-.772743-30.409629-1.935855-53.55762-3.477695-69.370464-1.539566-15.802656-4.82752-38.376055-9.873968-67.746497-.935234-5.443085 2.719102-10.613735 8.162187-11.54897 5.443086-.935234 10.613736 2.719101 11.54897 8.162187zm55.049062-8.179051c5.123036 29.376955 8.475079 52.052646 10.071347 68.198985 1.597915 16.149353 2.782838 39.39156 3.566865 69.802986.142335 5.521013-4.217945 10.112064-9.738958 10.254399s-10.112064-4.217944-10.254399-9.738957c-.772579-29.96738-1.935374-52.775555-3.476399-68.349946-1.538712-15.56415-4.825676-37.799601-9.871104-66.731529-.948808-5.440736 2.692619-10.620485 8.133355-11.569293s10.620485 2.692619 11.569293 8.133355zm51.60811-6.485789c5.124274 28.951481 8.477224 51.302849 10.074313 67.227001 1.598747 15.927028 2.783988 38.850845 3.568179 68.848977.144325 5.520961-4.2143 10.113584-9.735261 10.257909s-10.113584-4.2143-10.257909-9.735261c-.772414-29.547631-1.934891-52.031178-3.475088-67.374921-1.537835-15.333341-4.823773-37.237993-9.868135-65.737979-.962556-5.43832 2.665767-10.627256 8.104087-11.589813 5.438321-.962557 10.627257 2.665766 11.589814 8.104087zm56.195567-7.259574c5.1256 28.515121 8.47951 50.532164 10.07748 66.225135 1.59964 15.695802 2.78523 38.285289 3.5696 67.847172.14649 5.520904-4.21034 10.115233-9.73124 10.26172-5.52091.146487-10.11523-4.210339-10.26172-9.731244-.77224-29.104504-1.93437-51.247034-3.47367-66.350712-1.53689-15.093194-4.82174-36.656849-9.86497-64.713779-.97707-5.435731 2.63739-10.634336 8.07312-11.611408 5.43573-.977073 10.63433 2.637385 11.6114 8.073116zm55.04853-7.066639c5.12693 28.08879 8.48182 49.778034 10.08068 65.242904 1.60058 15.467726 2.78652 37.725263 3.57108 66.852482.14871 5.520845-4.20627 10.116925-9.72712 10.265632-5.52084.148707-10.11692-4.206272-10.26563-9.727117-.77205-28.66287-1.93382-50.466648-3.4722-65.333321-1.53593-14.856167-4.81967-36.085435-9.86175-63.709395-.99168-5.433085 2.60879-10.641386 8.04188-11.633064 5.43308-.991678 10.64138 2.608794 11.63306 8.041879zm55.04824-7.067797c5.12835 27.656878 8.48427 49.014746 10.08409 64.249966 1.60156 15.238064 2.78788 37.162454 3.57263 65.854274.151 5.520783-4.20207 10.11867-9.72285 10.26967-5.52078.150999-10.11867-4.202071-10.26967-9.722853-.77185-28.220214-1.93324-49.683783-3.47065-64.31149-1.53491-14.617144-4.81747-35.508097-9.85834-62.693172-1.00692-5.430281 2.57892-10.648666 8.0092-11.65559s10.64866 2.578915 11.65559 8.009195zm51.60725-7.603183c5.12982 27.231789 8.48684 48.265728 10.08764 63.279298 1.60255 15.016268 2.78926 36.622667 3.57421 64.901606.15324 5.520721-4.19797 10.120376-9.71869 10.273617s-10.12037-4.197962-10.27361-9.718683c-.77166-27.800052-1.93267-48.938593-3.46908-63.335128-1.53387-14.385797-4.81521-34.94556-9.85479-61.698302-1.02239-5.42739 2.54856-10.655971 7.97595-11.678362 5.42739-1.022392 10.65598 2.548565 11.67837 7.975954zm51.60719-6.488778c3.61359 18.888014 6.3478 34.749994 8.20851 47.64834l.2191 1.53358c.68052 4.811314 1.23494 9.19504 1.66359 13.154602 1.60357 14.798913 2.79067 36.090676 3.57582 63.958954.15554 5.520657-4.19375 10.122122-9.71441 10.277659-5.52065.155537-10.12212-4.193752-10.27765-9.714409-.77146-27.38207-1.93207-48.198863-3.46747-62.368656-1.53281-14.15897-4.81292-34.39703-9.85122-60.731896-1.03779-5.424466 2.51831-10.663161 7.94277-11.700952 5.42447-1.037791 10.66317 2.518312 11.70096 7.942778zm-133.4099-81.23664 66.17188 25.213988c-131.77074 11.5072-228.583945 20.623322-290.439601 27.348367-61.855655 6.725044-127.911842 15.316338-198.168562 25.773883l-61.937878-34.6348 232.264255-22.109088z" transform="translate(-424 -524)"/></svg>