<?xml version="1.0" encoding="UTF-8"?>
<svg width="960px" height="960px" viewBox="0 0 960 960" version="1.1" xmlns="http://www.w3.org/2000/svg" xmlns:xlink="http://www.w3.org/1999/xlink">
    <title>com.fibaro/drivers/roller_shutter_4/assets/pair</title>
    <style type="text/css">
    #pair {
        animation: fillpulse 3s infinite;
    }

    @keyframes fillpulse {
        0%, 20%, 40%, 60%, 100% {
            fill: #FFFFFF;
        }
        10%, 30%, 50% {
            fill: #0074CC;
        }
    }
    </style>
    <g id="com.fibaro/drivers/roller_shutter_4" stroke="none" stroke-width="1" fill="none" fill-rule="evenodd">
        <g id="#athom/com.fibaro/icon" transform="translate(-424, -524)">
            <path d="M905.880658,633 C1136.31138,633 1248.10051,640.152598 1305.73865,659.241144 C1335.2681,669.020683 1352.73569,682.672962 1361.66032,702.435696 C1365.55529,711.060721 1367.78418,720.679279 1368.92455,732.374976 C1369.00835,733.234429 1369.08587,734.080701 1369.15765,734.924812 L1369.21777,735.648063 C1369.23705,735.885315 1369.25587,736.122645 1369.27427,736.360298 L1369.32819,737.074471 C1369.33697,737.193743 1369.34564,737.313156 1369.35421,737.432743 L1369.40439,738.152577 C1369.86145,744.894936 1370.00478,752.370575 1370.09655,765.956558 C1370.14098,772.534051 1370.17618,776.488105 1370.23729,780.125106 L1370.2487,780.783399 L1370.26698,781.764476 L1370.28001,782.418777 L1370.29379,783.076874 C1370.30558,783.627724 1370.31819,784.185736 1370.33174,784.758932 C1370.54259,793.680528 1370.76762,802.83359 1371.05052,814.072923 C1372.73591,881.030387 1373.31422,905.226717 1373.57161,928.035678 L1373.58713,929.445134 C1373.58965,929.67987 1373.59214,929.914549 1373.5946,930.149216 L1373.61244,931.909713 C1373.66429,937.194812 1373.70127,942.531486 1373.73319,948.436101 C1373.77579,956.316889 1373.77873,963.879644 1373.73974,971.148896 C1373.86311,988.605183 1373.57183,1003.47017 1372.79125,1018.02216 C1372.71706,1019.40532 1372.63833,1020.78552 1372.55497,1022.16362 C1372.00227,1034.16327 1371.25459,1045.21652 1370.29116,1055.52775 C1370.24943,1055.97438 1370.20853,1056.41842 1370.16842,1056.86049 L1370.08924,1057.74217 C1370.02412,1058.47503 1369.96112,1059.20354 1369.90008,1059.93056 L1369.79227,1061.23819 C1369.76876,1061.52869 1369.74555,1061.81922 1369.72263,1062.10997 L1369.65469,1062.98305 C1369.63168,1063.28274 1369.60896,1063.58284 1369.58652,1063.88357 L1369.52001,1064.78781 C1368.79727,1074.75927 1368.36261,1085.62091 1367.77812,1104.49292 C1367.57372,1111.09279 1367.45406,1114.84003 1367.32942,1118.34797 L1367.30736,1118.96507 C1367.30366,1119.06768 1367.29996,1119.17022 1367.29625,1119.27275 L1367.27382,1119.88838 C1367.25123,1120.50498 1367.22806,1121.1261 1367.20384,1121.7661 C1365.67783,1162.08545 1362.35708,1188.41823 1353.81443,1214.33672 C1342.91182,1247.41534 1324.02959,1274.80583 1294.5661,1297.48324 C1227.03695,1349.45897 1103.6345,1376 903.22655,1376 C702.606735,1376 577.187406,1349.36621 507.955439,1297.56556 C477.539316,1274.80764 457.930737,1247.2855 446.887766,1214.38874 C437.950791,1187.7657 434.7857,1159.35698 434.890433,1121.35963 C434.890433,1120.33286 434.900461,1119.32729 434.906757,1118.32864 L434.915859,1117.04734 C434.918444,1116.72075 434.921231,1116.39425 434.924229,1116.06733 C434.916316,1115.57434 434.909651,1115.08028 434.903861,1114.58422 L434.893679,1113.61419 C434.883092,1112.479 434.877019,1111.33068 434.875416,1110.15955 L434.875814,1108.64048 C434.890723,1100.63394 435.106287,1091.41188 435.508973,1078.04288 C435.902395,1064.98146 436.066482,1058.46856 436.107658,1051.93244 L436.113317,1050.86162 C436.1157,1050.30516 436.117239,1049.74596 436.118001,1049.17999 L436.118333,845.790717 C436.118096,845.478696 436.117677,845.169877 436.117062,844.86128 L436.115567,844.243505 C436.108218,841.663332 436.086663,838.960889 436.043172,834.413498 C436.000715,829.97423 435.974271,826.203623 435.970202,822.899389 L435.970062,821.2852 C435.974722,817.163456 436.019396,813.780423 436.11828,810.684799 L436.11834,784.29336 C436.115964,780.694246 436.094795,777.448228 436.043086,771.443528 C436.001563,766.621758 435.975375,762.550167 435.970756,759.009478 L435.970622,756.947018 C435.97935,750.105963 436.08396,745.311719 436.338157,740.675184 L436.375835,740.007829 L436.41562,739.341402 C436.429236,739.119275 436.44321,738.897092 436.457547,738.674646 L436.501654,738.006303 C436.524258,737.671525 436.547692,737.335681 436.571977,736.998064 L436.621686,736.320257 L436.647403,735.979187 C437.581479,723.69992 439.636122,713.664896 443.385817,704.68335 C452.014195,684.016021 469.470599,669.8006 499.334382,659.692695 C557.153506,640.122828 669.372693,633 905.880658,633 Z M498.687794,1262.79928 L498.782717,1262.8983 C505.040089,1269.45762 512.071331,1275.6665 519.937175,1281.55187 C584.920152,1330.17335 706.538612,1356 903.22655,1356 C1099.6157,1356 1219.15065,1330.29078 1282.36743,1281.63419 C1289.57081,1276.0899 1296.0454,1270.25498 1301.84856,1264.09866 C1296.4041,1268.41443 1290.56449,1272.5536 1284.31233,1276.52053 C1214.76247,1320.64922 1093.55999,1343.39833 903.22655,1343.39833 C712.720689,1343.39833 589.6904,1320.58125 518.46806,1276.58439 C511.371609,1272.20063 504.784892,1267.60668 498.687794,1262.79928 Z M905.880658,698.258216 C686.523602,698.258216 565.240698,710.537565 506.549361,736.221 C481.906974,747.004552 468.471066,759.848773 461.930661,776.622114 C459.056076,783.994197 457.384379,792.355025 456.588621,802.609526 C456.570551,802.842385 456.552937,803.074142 456.535772,803.305058 L456.485617,803.995548 C456.47748,804.110297 456.469453,804.224901 456.461535,804.339392 L456.415334,805.025261 C456.285618,807.004181 456.188183,808.969086 456.118071,811.090178 L456.118473,1055.00594 C456.117708,1056.63514 456.112316,1058.20923 456.101424,1059.79155 L456.095516,1060.58368 C456.038142,1067.72435 455.866446,1075.24521 455.500867,1088.91674 C455.199072,1100.20292 455.03379,1107.21963 454.953369,1113.52911 L454.943559,1114.331 C454.938881,1114.73031 454.93454,1115.12734 454.930521,1115.52304 L454.925814,1115.98578 C454.926319,1116.01781 454.926828,1116.04984 454.927341,1116.08186 L454.943741,1117.03304 C454.94959,1117.34971 454.95582,1117.66605 454.962432,1117.98232 L454.982759,1118.90279 C455.022009,1120.59072 455.072175,1122.28307 455.133393,1124.01635 C456.155793,1152.96423 460.650485,1176.11246 470.385834,1196.87713 C481.874075,1221.38057 500.683054,1242.08957 528.979057,1259.56913 C596.355117,1301.18999 716.103042,1323.39833 903.22655,1323.39833 C1090.10113,1323.39833 1207.96543,1301.27578 1273.59735,1259.63299 C1300.9963,1242.24863 1319.11821,1221.63677 1330.37065,1196.9716 C1339.7344,1176.4464 1344.29028,1153.84816 1346.33592,1123.69251 C1346.41853,1122.47474 1346.49537,1121.29336 1346.56793,1120.11871 L1346.61568,1119.33628 C1346.6314,1119.07558 1346.64693,1118.81489 1346.66227,1118.55389 L1346.7078,1117.76958 C1347.08299,1111.22032 1347.35732,1104.26829 1347.78893,1091.82703 C1348.40318,1074.12095 1348.8621,1064.12672 1349.6741,1054.67783 L1349.75252,1053.77935 C1349.77902,1053.48026 1349.8059,1053.18149 1349.83317,1052.8828 L1349.95306,1051.59621 L1349.97353,1051.38161 L1350.07804,1050.30668 C1350.1064,1050.01949 1350.13516,1049.73178 1350.16433,1049.44335 L1350.2531,1048.57569 C1350.29812,1048.14057 1350.3441,1047.70339 1350.39109,1047.26345 C1351.32888,1038.48314 1352.05038,1029.85543 1352.58041,1021.13826 C1353.26389,1006.17201 1353.63891,989.647948 1353.73969,971.160316 C1353.69994,965.566387 1353.6167,959.691646 1353.49262,953.459178 C1353.28494,943.027772 1352.97466,931.81744 1352.47228,915.923763 C1352.46504,915.694744 1352.1881,907.129884 1351.87354,897.328091 L1351.84724,896.508564 C1351.82526,895.823492 1351.80314,895.133406 1351.78094,894.440683 L1351.75427,893.608302 C1351.73647,893.052741 1351.71865,892.4961 1351.70084,891.939598 L1351.67414,891.105101 L1351.63615,889.917079 C1351.40239,882.603417 1351.17933,875.57083 1351.05836,871.614226 C1350.79408,862.97063 1350.55765,854.813688 1350.33818,846.689973 C1350.3142,845.802327 1350.29305,844.952082 1350.27411,844.103851 L1350.26032,843.467502 C1350.1844,839.857401 1350.14572,836.123884 1350.09705,829.550461 C1349.87352,799.358382 1348.70314,787.445251 1343.31797,774.54169 C1336.57471,758.383951 1323.08384,745.911676 1298.64784,735.414705 C1240.27887,710.341148 1120.6264,698.258216 905.880658,698.258216 Z M1006.75472,1146.02347 C1031.69958,1146.02347 1051.92139,1166.24528 1051.92139,1191.19014 C1051.92139,1216.135 1031.69958,1236.35681 1006.75472,1236.35681 C981.809858,1236.35681 961.588052,1216.135 961.588052,1191.19014 C961.588052,1166.24528 981.809858,1146.02347 1006.75472,1146.02347 Z M1006.75472,1156.02347 C987.332705,1156.02347 971.588052,1171.76813 971.588052,1191.19014 C971.588052,1210.61215 987.332705,1226.35681 1006.75472,1226.35681 C1026.17673,1226.35681 1041.92139,1210.61215 1041.92139,1191.19014 C1041.92139,1171.76813 1026.17673,1156.02347 1006.75472,1156.02347 Z M576.036524,664.427335 L575.019261,664.550039 C545.189971,668.228047 522.756644,672.879576 505.746398,678.636983 C480.941838,687.032508 468.042289,697.537106 461.841964,712.388584 C459.017842,719.153128 457.374634,727.178675 456.589787,737.496192 C456.56569,737.812972 456.542405,738.127878 456.519914,738.441602 L456.475985,739.06768 L456.434142,739.691838 C456.413736,740.003643 456.3941,740.315189 456.375215,740.62717 L456.338442,741.251916 L456.320797,741.565108 L456.286969,742.193902 C456.196533,743.929609 456.127939,745.713454 456.078139,747.660933 C465.887331,735.889588 479.767041,726.109864 498.531419,717.898538 C560.63098,690.723659 683.751925,678.258216 905.880658,678.258216 C1123.33368,678.258216 1244.82512,690.526854 1306.54172,717.038455 C1325.7282,725.280389 1339.84167,735.125015 1349.76406,747.020197 C1349.13847,728.732349 1347.52387,719.726458 1343.43275,710.667072 C1337.04715,696.526782 1324.06166,686.377608 1299.45091,678.227044 C1283.86463,673.065193 1263.7372,668.79809 1237.65987,665.334557 C1237.79369,665.79429 1237.86835,666.281174 1237.86835,666.785497 C1237.86835,669.54692 1235.62978,671.785497 1232.86835,671.785497 L580.446612,671.785497 C577.685188,671.785497 575.446612,669.54692 575.446612,666.785497 C575.446612,665.932739 575.660092,665.129843 576.036524,664.427335 Z M905.880658,653 C764.00159,653 667.229575,655.598069 600.795625,661.785037 L1205.87281,661.784845 C1140.1348,655.630429 1044.73932,653 905.880658,653 Z" id="Combined-Shape" fill="#000000" fill-rule="nonzero"></path>
            <rect id="pair" fill="#0074CC" x="1081.9965" y="1091.05634" width="69.0187793" height="29.4178404" rx="13"></rect>
            <path d="M1138.01528,1086.05634 C1147.95641,1086.05634 1156.01528,1094.11521 1156.01528,1104.05634 L1156.01528,1107.47418 C1156.01528,1117.4153 1147.95641,1125.47418 1138.01528,1125.47418 L1094.9965,1125.47418 C1085.05538,1125.47418 1076.9965,1117.4153 1076.9965,1107.47418 L1076.9965,1104.05634 C1076.9965,1094.11521 1085.05538,1086.05634 1094.9965,1086.05634 L1138.01528,1086.05634 Z M1138.01528,1096.05634 L1094.9965,1096.05634 C1090.57822,1096.05634 1086.9965,1099.63806 1086.9965,1104.05634 L1086.9965,1107.47418 C1086.9965,1111.89246 1090.57822,1115.47418 1094.9965,1115.47418 L1138.01528,1115.47418 C1142.43356,1115.47418 1146.01528,1111.89246 1146.01528,1107.47418 L1146.01528,1104.05634 C1146.01528,1099.63806 1142.43356,1096.05634 1138.01528,1096.05634 Z" id="Rectangle" fill="#000000" fill-rule="nonzero"></path>
        </g>
    </g>
</svg>