<svg height="960" viewBox="0 0 960 960" width="960" xmlns="http://www.w3.org/2000/svg"><g fill="none" fill-rule="evenodd" stroke="#000"><g stroke-linecap="round" stroke-linejoin="round"><path d="m100.890679 21c.250012.0038913.498845.0105242.748546.0212305l798.72155 34.2463279c13.607868.5834568 24.639225 11.4324234 24.639225 24.2318451v751.2693205c0 12.799421-11.031357 24.313341-24.639225 25.717058l-798.161647 82.334703c-.328863.119677-.655022.179515-.978478.179515-.311887 0-.620461-.00826-.924099-.023404-.226792.01077-.4528871.017517-.6781254.020884l-.3989641.002434c-4.871151-.013463-9.326657-1.611138-12.9481492-4.381574-43.955852-18.343026-50.465545-33.867-51.1918323-46.434603l-1.07948-.7153v-830.0258828l1.4425837-.4505797c1.1343032-11.38712 5.1141094-22.0563782 18.8703754-25.4657229 11.0516903-2.7390442 23.3943174-5.5733088 37.0278812-8.5027937 2.7862788-1.2753638 5.8519638-1.990028 9.0808617-2.0223138l.404211-.0004747c.018622.0001422.03725.000307.055883.0004946z" stroke-width="40"/><g stroke-width="20"><path d="m108.92048 33.02616 778.594973 33.3789129c13.26497.5686786 24.018354 11.142855 24.018354 23.6180841v732.240645c0 12.475229-10.753384 23.697516-24.018354 25.065679l-778.594973 80.305114c-13.2649705 1.368163-24.0183539-9.206013-24.0183539-23.618084v-845.9246721c0-14.4120708 10.7533834-25.6343575 24.0183539-25.0656789z"/><path d="m401.234492 810.746906c184.832996 60.055881 384.169775-43.604639 445.231158-231.532251 61.061383-187.927613-39.275335-388.957954-224.108331-449.013835-184.832996-60.0558807-384.169775 43.604639-445.231158 231.532251-61.061382 187.927613 39.275335 388.957954 224.108331 449.013835z"/></g></g><path d="m429.94389 757.795848c155.779905 50.615959 323.783808-36.750616 375.247219-195.138709 51.463411-158.388092-33.101817-327.819353-188.881722-378.435312-155.779905-50.61596-323.783808 36.750616-375.247219 195.138708-51.46341 158.388093 33.101817 327.819353 188.881722 378.435313z" stroke-width="30"/></g></svg>