<svg height="960" viewBox="0 0 960 960" width="960" xmlns="http://www.w3.org/2000/svg"><g fill="none" fill-rule="evenodd" stroke="#000" stroke-linecap="round" stroke-linejoin="round"><path d="m355.300304 25.4989143c12.254677-1.1628874 21.488074-1.8511056 27.70019-2.0646548 7.134668-.245263 17.921449-.245263 32.360341 0 49.755773-1.710416 90.090797 37.3969606 90.090797 87.3487705v730.523386c0 49.95181-40.335024 87.9633-90.090797 84.90104l-60.060531-3.696476c-58.686297-3.611896-106.26094-53.013088-106.26094-110.340649v-679.217834c0-57.3275613 47.574643-105.436169 106.26094-107.4535827z" stroke-width="40"/><path d="m392.821001 31.1011169c9.845331-1.1485562 17.263383-1.8282931 22.254159-2.0392105 5.731947-.2422405 14.397978-.2422405 25.998093 0 39.973475-1.6893374 72.378379 36.9360912 72.378379 86.2723096v721.520625c0 49.336218-32.404904 86.879266-72.378379 83.854744l-48.252252-3.650921c-47.148201-3.567385-85.369369-52.35977-85.369369-108.980843v-670.847348c0-56.6210733 38.221168-104.1368043 85.369369-106.1293561z" stroke-width="20"/><path d="m699.105108 289.821366c4.062394-.48672 7.123241-.77477 9.182541-.86415 2.365124-.102653 5.940914-.102653 10.727369 0 16.493909-.715885 29.864865 15.65229 29.864865 36.559342v305.756498c0 20.907052-13.370956 36.81655-29.864865 35.534858l-19.90991-1.547139c-19.454355-1.511739-35.225225-22.188333-35.225225-46.182465v-284.282845c0-23.994132 15.77087-44.129722 35.225225-44.974099z" stroke-width="20"/><path d="m625.411032 336.061236v284.836074c3.297605 27.550382 20.984361 44.507142 53.060266 50.870279 48.113857 9.544706 70.167705-27.131062 70.167705-59.750825s0-265.180508 0-285.947333c0-20.766824-27.47581-54.957587-66.048604-47.807515-21.219047 3.933283-37.906545 14.341766-50.062494 31.22545-.890746 1.237178-3.783472 5.441929-5.793347 13.817401-.551465 2.298043-.992641 6.550199-1.323526 12.756469z" stroke-width="40"/></g></svg>