<svg viewBox="0 0 1417.32 1104.97" xmlns="http://www.w3.org/2000/svg"><path d="m1401.69 247.76c-9.87-20.81-24.48-41.15-43.41-60.46-36.35-37.08-88-70.21-153.55-98.48-64.73-27.92-139.95-49.82-223.61-65.08-86.33-15.74-178-23.74-272.46-23.74s-186.12 8-272.45 23.74c-83.67 15.26-158.9 37.16-223.62 65.08-65.54 28.27-117.2 61.4-153.59 98.48-18.9 19.31-33.5 39.7-43.37 60.46-10.37 21.87-15.63 44.45-15.63 67.13 0 30.34 9.33 60.22 27.73 88.82 17.27 26.84 42.52 52.47 75 76.17 60.3 43.95 145 80.79 245.62 106.88v20.24c-6.83 3.51-13.17 7.12-19 10.82h-1.75l-3.5 1.82c-35.26 18.36-78.59 48.09-118.8 81.65-19 15.83-64.56 55.58-78.35 82.78-13.36 26.34-16.59 60.12-17.32 77.9v.65.65l.37 9.49v.54l.06.54c3.6 33.78 23.09 65.85 57.93 95.32 32 27.07 76 51.18 130.87 71.64 110.91 41.38 256.44 64.2 409.8 64.2s298.89-22.79 409.78-64.17c54.83-20.46 98.87-44.56 130.87-71.64 34.85-29.47 54.34-61.54 57.93-95.32l.06-.54v-.55l.36-9.49v-.64-.64c-.73-17.79-4-51.56-17.32-77.9-13.8-27.2-59.39-66.95-78.35-82.78-40.18-33.54-83.46-63.28-118.78-81.62-1.37-.74-13.54-7.25-24.3-12.69v-20.26c100.6-26.08 185.32-62.93 245.62-106.88 32.52-23.7 57.76-49.33 75-76.17 18.4-28.6 27.72-58.48 27.72-88.82.07-22.68-5.19-45.26-15.56-67.13zm-1032.59 330.57c96.14 23.3 204.18 36.39 316.81 37.94h1.09l9 .09h2.27q5.16 0 10.34 0t10.34 0h2.27l9-.09h1.11c112.64-1.55 220.67-14.64 316.81-37.94v38.87l-.37.82.37.17v50.69c0 25.87-35.57 51.69-97.58 70.86-64.57 20-150.51 30.95-242 30.95s-177.41-11-242-30.95c-62-19.17-97.58-45-97.58-70.86zm682.57-10.33c-97.3 24.08-207.52 37.53-320.12 39.14h-.88l-9.31.1h-2.28q-5.21 0-10.42 0t-10.42 0h-2.28l-9.31-.1h-.88c-112.6-1.57-222.77-15.02-320.12-39.14l-5.65-1.36v.07c-50.21-12.72-97-28.28-139.23-46.51-63.05-27.2-112.5-58.82-147-94-35.25-36-53.12-74-53.12-113.1s17.92-77.1 53.17-113.1c34.47-35.15 83.91-66.77 147-94 130.18-56.11 303.47-87 487.84-87s357.63 30.94 487.87 87.13c63.05 27.2 112.5 58.82 147 94 35.25 36 53.12 74 53.12 113.1s-17.87 77.15-53.12 113.1c-34.46 35.15-83.91 66.77-147 94-42.24 18.22-89 33.79-139.23 46.51v-.07zm-691.67 54.54v46.34c0 30.57 36.93 58.82 104 79.54 65.42 20.22 152.3 31.35 244.66 31.35s179.24-11.13 244.66-31.35c67.06-20.72 104-49 104-79.54v-46.33c38.26 19.16 58.42 40.68 58.42 62.57 0 31.36-42.77 62.56-117.36 85.61-77.32 23.9-180.21 37.06-289.71 37.06s-212.4-13.16-289.67-37.06c-74.58-23-117.35-54.25-117.35-85.61-.05-21.87 20.1-43.41 58.35-62.58zm931.17 249.59c-12.83 120.51-268.7 216.68-582.52 216.68s-569.65-96.17-582.51-216.68l-.37-9.49a247.59 247.59 0 0 1 3.32-31.51c22.54 53.46 92.91 102.21 198.21 137.33 106 35.36 241.47 54.83 381.36 54.83 140.7 0 276.72-19.67 383-55.39 104.46-35.1 174.09-83.58 196.55-136.75a247.62 247.62 0 0 1 3.31 31.49zm-15.17-80.75a120.67 120.67 0 0 1 8.44 22.44l-3.67 11.69c-20.4 51.54-88.55 99-191.94 133.79-105.39 35.41-240.39 54.92-380.13 54.92-138.94 0-273.36-19.31-378.48-54.37-103.08-34.38-171.58-81.48-192.9-132.65l-4.37-13.36a120.7 120.7 0 0 1 8.44-22.46c16.34-32.22 99.54-104.49 169.79-146-12.3 12.68-18.63 26-18.63 39.76 0 36.14 44 69.63 123.76 94.29 78.17 24.16 182 37.46 292.39 37.46s214.23-13.3 292.39-37.46c79.81-24.66 123.76-58.15 123.76-94.29 0-13.7-6.31-27.06-18.59-39.73 70.2 41.51 153.36 113.76 169.74 145.97z"/></svg>