<svg height="960" viewBox="0 0 960 960" width="960" xmlns="http://www.w3.org/2000/svg"><g fill="none" fill-rule="evenodd"><path d="m457.25346 24.8898653c72.684437-4.4131298 172.282653-.5335121 251.197914 27.617076.235154.0838837.473099.1687107.7138.2545201 29.870989 10.6489539 98.944134 35.023055 147.533902 136.4522646 27.937128 58.317644 49.194246 143.189027 50.583833 267.999332.008539.766998.018791 4.990915.02661 9.43358l.00151.87326c.004707 2.769639.008656 5.540146.01116 7.504638l.000742.593075.000925.778292.001201 1.176118c-1.37955 151.323044-45.204556 281.832494-123.891508 345.543719-79.182062 64.112104-171.438698 100.310104-322.861937 111.782286-153.792232 11.651662-237.209431-18.858843-307.804299-80.947088-65.3453351-57.471277-105.6315091-135.076889-111.0601534-302.614625-.0980195-3.025058-.1474928-9.778313-.1542232-18.480441l-.000276-4.45851c.0036037-6.145542.0227083-13.031103.0522745-20.113862l.0056519-1.327141.0029205-.666235.0060038-1.332413.003096-.669167.0095834-2.003256c.0043712-.89201.0088828-1.784681.0135251-2.676953l.0112892-2.122102.0077752-1.410491.0039683-.705291.0080626-1.40484c.0012659-.217732.002539-.435307.0038192-.652708l.0077645-1.302203c.1268553-21.014672.3171742-40.108581.427725-43.216198 6.139491-172.582972 40.3602354-258.693561 105.3817004-318.293171 72.370278-66.3356381 193.963709-98.5810086 309.75564-105.6114657z" stroke="#000" stroke-linejoin="round" stroke-width="40"/><path d="m897.990214 484.136114c-2.811931-280.188923-98.779831-325.464681-132.783958-338.921413-59.766506-23.65189-144.247373-22.713096-199.271734-19.006786-86.743126 5.842811-178.272622 31.841551-232.607005 87.092906-48.594498 49.4146-84.797535 121.524146-89.364828 263.955615-.095598 2.981235-.262468 23.147903-.358178 43.556001-.090551 19.308109-.117405 38.832323.040057 44.223444 4.026614 137.861443 33.505232 221.658355 82.170175 269.1409 52.579482 51.301974 126.365776 56.47172 240.585176 46.87164 114.219401-9.600081 178.076347-46.193775 237.864334-99.898028 58.780385-52.799178 93.725961-187.96223 93.755099-279.389707 0-.999742-.014957-16.211535-.029138-17.624572z" stroke="#000" stroke-linecap="round" stroke-linejoin="round" stroke-width="20"/><path d="m589.688166 200.880855c46.478037-3.100646 118.285055-5.641487 169.013283 14.241206 13.74368 5.386771 40.461212 21.307426 60.58859 72.188717 17.476783 44.180682 29.619016 108.774459 30.576434 203.260028l.033321 3.308277v3.026057c0 1.624069 0 3.299253-.005216 5.03334l-.002273 5.330839c-.023601 73.354602-23.521516 185.166076-72.020293 228.312326-49.699691 44.214627-102.92564 73.976936-197.761586 81.871452-85.603256 7.125951-146.266256 11.813894-187.380171-27.916615-40.466729-39.1051-59.201438-110.454415-62.485579-221.817693-.061887-2.098573-.078045-6.675188-.08526-12.596239v-.966386-3.60753c0-4.601058.01436-9.696112.032894-14.955828l.004439-1.22902c.00681-1.840821.014399-3.699142.022632-5.556727l.005624-1.24731c.0019-.414361.003831-.828769.005793-1.243075.00755-1.594385.015548-3.187261.023902-4.766018l.006375-1.189491.006147-1.123401c.091748-16.628481.208085-31.604266.287909-34.069754 3.757568-116.057019 30.110432-177.06765 70.578427-217.824199 43.988345-44.302 119.22873-61.838085 188.554608-66.462956z" stroke="#000" stroke-linecap="round" stroke-linejoin="round" stroke-width="20"/><g fill="#000"><path d="m508.889343 424.936975 39.739534-3.012345v126.122885l-39.739534 3.012345z"/><path d="m659.331864 412.470159 39.739534-2.843905v119.070505l-39.739534 2.843905z"/><path d="m571.337182 701.418845v-55.196307c0-17.362701 14.212112-30.596664 34.772092-32.378901 14.562598-1.262354 29.675887 7.781025 33.756476 20.198954.673909 2.05082 1.015616 4.12052 1.015616 6.151529v55.196306z"/><path d="m75.9510898 425.816288 2.5074358 176.787 30.3280044 19.818034v-187.359504z"/></g></g></svg>