<?xml version="1.0" encoding="UTF-8"?>
<svg width="960px" height="960px" viewBox="0 0 960 960" version="1.1" xmlns="http://www.w3.org/2000/svg" xmlns:xlink="http://www.w3.org/1999/xlink">
    <title>com.fibaro/drivers/FGWPB-121/assets/learnmode</title>
<style type="text/css">
#pair {
	animation: fillpulse 3s infinite;
}

@keyframes fillpulse {
	0%, 20%, 40%, 60%, 100% {
		fill: #FFFFFF;
	}
	10%, 30%, 50% {
		fill: #0074CC;
	}
}
</style>
    <g id="com.fibaro/drivers/FGWPB-121/assets/learnmode" stroke="none" stroke-width="1" fill="none" fill-rule="evenodd">
        <path d="M918.50322,456.335446 C914.734574,117.842198 769.60757,67.9473792 724.03409,51.6904442 C643.932999,23.1168479 542.823291,19.4486535 469.077782,23.9262076 C352.821713,30.9848455 230.150788,62.3936457 157.33001,129.142218 C92.2020219,188.839469 59.7897971,275.954243 53.6685569,448.024181 C53.5404331,451.62578 53.316788,475.988916 53.1885147,500.643721 C53.0671553,523.969641 53.0311638,547.556636 53.2422,554.069592 C58.6388047,720.61853 97.3098924,798.802342 162.532295,856.165499 C233.001093,918.142866 316.620822,947.438725 469.701523,935.84097 C622.782224,924.243215 716.341987,888.177064 796.471868,823.297529 C875.251327,759.511405 917.152331,628.104885 918.546146,477.627504 C918.546146,476.419782 918.522226,458.042521 918.50322,456.335446 Z" id="Path-30" stroke="#000000" stroke-width="20" stroke-linecap="round" stroke-linejoin="round" transform="translate(485.818383, 480.331813) scale(-1, 1) translate(-485.818383, -480.331813) "></path>
        <path d="M761.512534,221.199928 C797.770635,252.718614 845.17243,257.552805 867.387407,231.997397 C869.4511,229.62339 871.276534,225.362344 871.162934,221.199928 C870.801644,207.961928 870.801644,202.022614 868.521926,197.486446 C850.621785,161.868865 792.247825,102.686554 775.821408,101.782048 C758.111349,100.806859 746.483973,105.895731 736.085211,117.858139 C713.870233,143.413547 725.254434,189.681242 761.512534,221.199928 Z" id="pair" fill="#0074CC"></path>
        <path d="M761.512534,221.199928 C797.770635,252.718614 845.17243,257.552805 867.387407,231.997397 C869.4511,229.62339 871.276534,225.362344 871.162934,221.199928 C870.801644,207.961928 870.801644,202.022614 868.521926,197.486446 C850.621785,161.868865 792.247825,102.686554 775.821408,101.782048 C758.111349,100.806859 746.483973,105.895731 736.085211,117.858139 C713.870233,143.413547 725.254434,189.681242 761.512534,221.199928 Z" id="Oval" stroke="#000000" stroke-width="10" stroke-linecap="round" stroke-linejoin="round"></path>
        <path d="M727.791171,484.318929 C724.844113,190.66555 624.264483,143.214069 588.62629,129.110675 C525.98771,104.322195 437.447122,105.306103 379.778569,109.190519 C288.86701,115.314107 192.939071,142.562214 135.993653,200.468668 C85.0639505,252.257883 47.1211793,327.832648 42.3344057,477.108649 C42.2342136,480.233147 42.0593244,501.368923 41.9590155,522.75773 C41.8641132,542.993689 41.835968,563.456137 42.0009971,569.106329 C46.2211101,713.592691 77.1163205,801.416457 128.119854,851.180773 C183.226038,904.948059 260.558127,910.366237 380.266331,900.304825 C499.974536,890.243413 566.900122,851.891212 629.561216,795.606206 C691.166288,740.269767 727.791171,598.611466 727.82171,502.790449 C727.82171,501.742664 727.806033,485.79987 727.791171,484.318929 Z" id="Path-30" stroke="#000000" stroke-width="10" stroke-linecap="round" stroke-linejoin="round" transform="translate(384.852086, 505.765895) scale(-1, 1) translate(-384.852086, -505.765895) "></path>
        <path d="M364.314786,187.451861 C413.026321,184.202215 488.28402,181.539273 541.449989,202.377428 C555.85412,208.02306 583.855562,224.708781 604.950158,278.035167 C623.266787,324.338949 635.992514,392.036775 636.995941,491.06284 L636.995941,491.06284 L637.030863,494.530096 L637.030863,497.70157 C637.030863,499.403684 637.030863,501.159368 637.025396,502.976787 L637.025396,502.976787 L637.023014,508.563798 C636.998279,585.44345 612.371174,702.628016 561.541792,747.847656 C509.453786,794.187013 453.670069,825.379547 354.276789,833.653433 C264.559875,841.121821 200.981719,846.035043 157.892079,804.395288 C115.480725,763.410995 95.84572,688.632995 92.4037606,571.918163 C92.338899,569.718743 92.3219645,564.922199 92.3144025,558.716613 L92.3144025,558.716613 L92.3144025,557.703787 L92.3144025,553.922898 C92.3144025,549.100736 92.3294531,543.76084 92.348878,538.248368 L92.348878,538.248368 L92.3535303,536.960289 C92.3606667,535.031007 92.3686209,533.083384 92.3772494,531.136533 L92.3772494,531.136533 L92.3831435,529.829284 C92.3851347,529.395011 92.387159,528.960689 92.3892151,528.526473 C92.3971275,526.85547 92.4055107,525.186048 92.414266,523.531425 L92.414266,523.531425 L92.4209469,522.284773 L92.4209469,522.284773 L92.4273896,521.107386 C92.523546,503.679825 92.6454736,487.98438 92.7291344,485.400414 C96.6672715,363.766283 124.28652,299.823791 166.699201,257.10869 C212.801403,210.67776 291.657459,192.298981 364.314786,187.451861 L364.314786,187.451861 Z" id="Path-30" stroke="#000000" stroke-width="10" stroke-linecap="round" stroke-linejoin="round" transform="translate(364.672633, 511.955507) scale(-1, 1) translate(-364.672633, -511.955507) "></path>
        <polygon id="Rectangle" fill="#000000" transform="translate(424.695256, 482.596064) scale(-1, 1) translate(-424.695256, -482.596064) " points="403.87065 418.082761 445.519863 414.925657 445.519863 547.109368 403.87065 550.266471"></polygon>
        <polygon id="Rectangle" fill="#000000" transform="translate(267.023233, 465.922783) scale(-1, 1) translate(-267.023233, -465.922783) " points="246.198626 405.016853 287.84784 402.036284 287.84784 526.828713 246.198626 529.809281"></polygon>
        <path d="M307.184975,707.850945 L307.184975,650.002184 C307.184975,631.805119 322.080049,617.935199 343.628037,616.067318 C358.890439,614.744301 374.729996,624.222259 379.006678,637.236931 C379.712971,639.386302 380.071099,641.555462 380.071099,643.684071 L380.071099,701.532831 L307.184975,707.850945 Z" id="Path-304" fill="#000000" transform="translate(343.628037, 661.897499) scale(-1, 1) translate(-343.628037, -661.897499) "></path>
    </g>
</svg>