<svg height="969" viewBox="0 0 969 969" width="969" xmlns="http://www.w3.org/2000/svg"><path d="m0 3.5115894v194.8932116h40.6327869v-78.341887h91.8000001v-35.4503312h-91.8000001v-44.7309603h110.1934431v-36.3700331zm169.470492 0h40.632787v194.8932116h-40.632787zm202.244262 93.6423841c15.806883 9.3041415 25.388096 26.3911915 25.081967 44.7309605 0 32.524006-20.985246 56.519867-66.885246 56.519867h-100.829508v-194.8932116h98.404918c42.890164 0 64.12623 23.7450331 64.12623 51.5869205 0 17.4743378-7.608197 35.5339404-19.898361 41.8046358m-49.160656-16.7218543c18.309836 0 27.339345-7.3576159 27.339345-21.8220199s-9.280328-21.571192-27.590164-21.571192h-52.504918v43.9784768zm1.421312 83.0240066c20.4 0 31.352459-7.692053 31.352459-24.07947s-10.367213-25.082782-30.85082-25.082782h-54.678688v48.911424zm374.306557-159.6937086c43.391803 0 68.473771 22.4072848 68.473771 60.6167219 1.37707 21.5487929-9.921521 41.9261037-28.927869 52.1721857l29.262295 82.104304h-40.967213l-26.168853-72.990894h-59.695082v73.408941h-40.632786v-195.3112586zm-58.022951 86.7864238h52.337705c23.995082 0 32.690164-9.2806291 32.690164-25.584437 0-18.3104305-9.781967-25.0827815-36.786885-25.0827815h-48.240984zm328.740984 10.7019868c0 57.272351-33.442623 101-94.977049 101s-94.977049-43.727649-94.977049-101 33.02459-101 94.977049-101 94.977049 43.6440397 94.977049 101m-41.803279 0c0-36.035596-16.721311-64.7135762-53.257377-64.7135762-36.536065 0-53.17377 28.6779802-53.17377 64.7135762s16.721311 64.629967 53.17377 64.629967 53.257377-28.594371 53.257377-64.629967m-395.793442 44.73096h-77.754099l-15.801639 52.673841h-40.131148l62.119673-194.8932116h66.885245l62.203279 194.8932116h-41.719672zm-67.303279-35.450331h56.35082l-20.4-67.7235098h-15.132787z" transform="translate(0 384)"/></svg>