<svg enable-background="new 0 0 1099.7 3266.9" viewBox="0 0 1099.7 3266.9" xmlns="http://www.w3.org/2000/svg"><path d="m1030.9 123.3c-33.2-76.4-85.5-117.9-155.5-123.2-2.8-.2-5.4-.2-8.7.1-69.7 5.7-121.7 47.3-154.7 123.7-32.6 75.4-47.4 187-44.1 331.8.6 24.3 1.8 27.8 8.9 47.1l1.6 4.5c39.9 109.3 61.3 233.3 63.9 368.3.3 14.6 1 18.8 4.5 33.2 11.5 47.6 13.7 91.9 6.4 131.6-7.2 39.6-23.9 75.8-49.7 107.7l.8.7c-1.2 1.6-1.2 4.5-1.1 8.3 0 3.7.2 9.4.5 16.7l.1 2.2 1.8 1.2c12.1 8.2 32.1 17.4 59.2 27.3v64.7l3.3.7c25.7 5.7 51 9.4 75.7 11.1v1123.4l21.4 44.2 27.8-.3 21.2-43.9v-1124c20.8-1.9 41.2-5.4 61-10.4l3.2-.8v-64.5c27.1-9.9 47.1-19.1 59.2-27.3l1.8-1.2.1-2.2c.3-7.4.5-13 .5-16.7 0-3.9.1-6.7-1.1-8.3l.8-.7c-25.8-31.9-42.5-68.1-49.7-107.7-7.2-39.7-5-84 6.4-131.6 3.5-14.5 4.2-18.6 4.5-33.2 2.5-135 24-258.9 63.9-368.3l1.6-4.5c7.1-19.3 8.3-22.8 8.9-47.1 3.3-145.4-11.7-257.2-44.4-332.6zm-125.2 2279-18.1 37.4h-3.7l4-33.2 11.6-4.2-1.4-4-14.1 5.1-4.4 36.4h-3.4l-4.4-36.3-14.1-5.1-1.4 4 11.6 4.2 4 33.3h-1.5l-18.2-37.6v-1120.9c7.7.4 15.3.6 22.8.6 10.3 0 20.5-.4 30.6-1.1v1121.4zm64.2-1140c-19.9 4.9-40.3 8.1-61.2 9.8l-29 .8-30.5-.2c-24.8-1.4-50.1-4.9-75.9-10.5v-56.5h196.7v56.6zm17-197.4c9.1 32.1 24.5 61.8 46.2 88.5l2-1.6 4.3 1.2c-.3 1.2-1.9 2.8-4.2 2.7-2.3-.2-3.6-2-3.8-3.2.1.7.2 3.8-.3 18.9-12 7.7-31.4 16.5-57.7 25.9h-203.7c-26.2-9.5-45.6-18.2-57.7-25.9-.6-15-.4-18.2-.3-18.9-.2 1.2-1.5 3.1-3.8 3.2s-3.8-1.5-4.2-2.7l4.3-1.2 2 1.6c26.7-33 44-70.5 51.5-111.5 7.4-40.9 5.2-86.3-6.5-135.1-3.4-13.9-4-17.5-4.2-31.4-2.5-136-24.2-260.8-64.4-371l-1.6-4.5c-7-19-7.9-21.5-8.4-44.3-3.3-143.5 11.3-253.9 43.4-328.2 15.9-36.8 36.4-65.4 60.9-85 24.4-19.6 53.6-30.8 86.7-33.5 2.9-.2 5-.3 7.4-.1 33.3 2.5 62.6 13.7 87.1 33.1 24.7 19.6 45.3 48.1 61.2 84.9 11.1 25.7 20.2 55.7 27.1 89.9-5.5-18.5-11.9-35.2-19.2-49.9-27.1-54.2-67.8-83.8-120.8-87.8-2.2-.2-4.3-.1-6.9.1-56.7 4.6-99.1 38.6-126 100.9-26.7 61.8-38.9 153.4-36.2 272.2.5 19.8 1.4 22.2 7.2 38.3l1.3 3.7c32.8 90.1 50.5 192.1 52.6 303.3.2 11.8.8 15.2 3.6 26.7-6.6 100.1 14.9 164.7 34.1 201.4 22.7 43.2 55.3 71.9 87.3 76.8 3.1.5 6.2.7 9.2.7 11.2 0 21.4-3.3 30.1-9.6 8.8-6.7 15.8-16.4 20.4-28.6zm79.9-609.4c-.3 14.8-.8 21.1-3 28.8-.5 1.4-1.1 2.9-1.7 4.6l-1.4 3.7c-2.6 7.1-5.1 14.3-7.5 21.5-37.9 107.8-58.4 229.3-60.9 361.3-.3 13.9-.9 17.5-4.2 31.4-11.8 48.8-14 94.2-6.5 135.1 1 5.3 2.1 10.5 3.4 15.6-8.7 29.6-29.8 44.7-57.1 40.5-56-8.5-129.5-99.1-117.8-274v-.3l-.1-.3c-2.8-11.6-3.3-14.6-3.5-26.1-2.1-111.7-19.9-214.2-52.9-304.7l-1.3-3.7c-5.8-15.8-6.5-17.9-7-36.9-2.7-118.2 9.4-209.2 35.8-270.4 13.2-30.4 30.1-54.1 50.5-70.5 20.3-16.3 44.5-25.6 72-27.9 1.4-.1 2.6-.2 3.7-.2.9 0 1.7 0 2.6.1 25.7 2 48.6 10.1 68 24.2 19.5 14.2 36.1 34.8 49.3 61.2 15.5 30.9 26.7 70.6 33.7 118.6 5.3 49.8 7.3 105.9 5.9 168.4z" fill="#1a1a18"/><path d="m956.3 206.3c-11.3-7-24.4-9.2-36.9-6.2-27.5 6.6-44.2 36.5-37.4 66.6 3.5 15.3 12.7 28.5 25.4 36.3 8 5 16.9 7.5 25.9 7.5 3.7 0 7.4-.4 11.1-1.3 27.5-6.6 44.2-36.5 37.4-66.6-3.6-15.2-12.9-28.4-25.5-36.3zm-13 98.8c-11.4 2.8-23.4.7-33.7-5.7-11.7-7.2-20.2-19.5-23.5-33.7-6.4-27.8 9-55.4 34.2-61.5 3.3-.8 6.7-1.2 10.1-1.2 8.2 0 16.3 2.3 23.6 6.9 11.7 7.2 20.2 19.5 23.5 33.7 6.4 27.9-9 55.4-34.2 61.5z" fill="#1a1a18"/><path d="m961.9 195.1c-13.9-8.6-30.1-11.3-45.5-7.6-33.8 8.2-54.5 45-46 82.1 4.3 18.8 15.7 35.2 31.3 44.8 1 .6 2 1.2 3 1.8s2 1.1 3.1 1.6c8.2 3.9 17 5.9 25.8 5.9 2.3 0 4.6-.1 6.8-.4 2.3-.3 4.5-.7 6.8-1.2 33.8-8.2 54.5-45 46-82.1-4.3-18.9-15.7-35.3-31.3-44.9zm-15.7 122.7c-14.3 3.5-29.3.9-42.2-7.1-1.8-1.1-3.6-2.4-5.3-3.7-11.9-9.3-20.5-22.9-24.1-38.5-7.9-34.8 11.3-69.3 42.9-77 4.2-1 8.4-1.5 12.6-1.5 10.2 0 20.4 2.9 29.6 8.6 14.6 9.1 25.3 24.4 29.4 42.1 7.9 35-11.3 69.5-42.9 77.1z" fill="#1a1a18"/><path d="m373.1 2616.5c-5.1 0-9.8-2-13.3-5.6s-5.4-8.5-5.3-13.6l1.4-63.4c.2-9.9 8.5-17.9 18.6-17.9 4.9 0 9.5 1.9 13 5.4 3.4 3.4 5.2 7.9 5.1 12.6l-.5 63.4c0 10.6-8.6 19.1-19 19.1zm1.4-96.1c-7.7 0-14.2 6.1-14.3 13.7l-1.4 63.4c-.1 4 1.4 7.7 4.1 10.5s6.3 4.3 10.2 4.3c8.1 0 14.7-6.6 14.8-14.8l.5-63.4c0-3.6-1.4-7-3.9-9.6-2.7-2.7-6.2-4.1-10-4.1z" fill="#1a1a18"/><path d="m544.2 2617.8c-12.3 0-22.3-10-22.3-22.3v-88.5c0-12.3 10-22.3 22.3-22.3s22.3 10 22.3 22.3v88.4c0 12.3-10 22.4-22.3 22.4zm0-128.9c-10 0-18.1 8.1-18.1 18.1v88.4c0 10 8.1 18.1 18.1 18.1s18.1-8.1 18.1-18.1v-88.4c0-10-8.1-18.1-18.1-18.1z" fill="#1a1a18"/><path d="m715.3 2616.5c-10.4 0-18.9-8.5-19-19l-.5-63.4c0-4.7 1.8-9.2 5.1-12.6 3.4-3.5 8.1-5.4 13-5.4 10 0 18.4 8 18.6 17.9l1.4 63.4c.1 5.1-1.8 9.9-5.3 13.6-3.6 3.5-8.3 5.5-13.3 5.5zm-1.4-96.1c-3.8 0-7.3 1.5-10 4.2-2.6 2.6-3.9 6-3.9 9.6l.5 63.4c.1 8.2 6.7 14.8 14.8 14.8 3.9 0 7.5-1.5 10.2-4.3s4.2-6.5 4.1-10.5l-1.4-63.4c-.1-7.7-6.6-13.8-14.3-13.8z" fill="#1a1a18"/><path clip-rule="evenodd" d="m927.8 2592.9c-9.1-8.3-25.2-13.8-43.5-13.8-19.7 0-36.9 6.4-45.5 15.7 9.1 8.3 25.2 13.8 43.5 13.8 19.7.1 36.9-6.3 45.5-15.7z" fill="#0078cc" fill-rule="evenodd"/><g fill="#1a1a18"><path d="m935.8 2579.2c0-17.4-24-31.6-53.5-31.6s-53.5 14.2-53.5 31.6c0 5.7 2.6 11.1 7.1 15.7l-.1.1 1.6 1.4c5 4.6 11.9 8.2 19.8 10.7l1 33.3 4.2-.1-1-32.1c3.8.9 7.8 1.6 12 2 .4 0 .8.1 1.2.1.5 0 1 .1 1.5.1.6 0 1.2.1 1.8.1.4 0 .8 0 1.2.1 1 0 2.1.1 3.1.1 1.1 0 2.2 0 3.3-.1h1c.8 0 1.5-.1 2.3-.1.4 0 .8-.1 1.2-.1.8-.1 1.5-.1 2.3-.2s1.5-.2 2.3-.3c.4-.1.8-.1 1.2-.2.7-.1 1.4-.2 2.2-.4.1 0 .3 0 .4-.1 2.1-.4 4.2-.9 6.3-1.4l-1 32.5 4.2.1 1-33.9c8.5-2.8 15.6-7 20.4-12.2l1.4-1.6-.1-.1c3.4-4 5.2-8.6 5.2-13.4zm-37.6 25.9c-.1 0-.1 0-.2 0-.9.2-1.9.3-2.9.5 0 0 0 0-.1 0-1 .2-2 .3-3.1.4h-.1c-.9.1-1.8.2-2.7.3-.3 0-.5 0-.8.1-.7.1-1.5.1-2.2.1-.3 0-.5 0-.8 0-1 0-2 .1-3 .1-.9 0-1.9 0-2.8 0-.3 0-.6 0-.9 0-.6 0-1.3-.1-1.9-.1-.3 0-.7 0-1-.1-.6 0-1.2-.1-1.8-.1-.3 0-.7-.1-1-.1-.6-.1-1.2-.1-1.9-.2-.3 0-.5-.1-.8-.1-1.8-.2-3.5-.6-5.2-.9-.2 0-.4-.1-.6-.1-.7-.2-1.4-.3-2.1-.5-.2 0-.3-.1-.5-.1-.8-.2-1.5-.4-2.3-.6h-.1c-6.9-2-12.9-5-17.5-8.6 8.9-8.4 24.9-13.5 42.3-13.5 16.2 0 31.1 4.4 40.4 11.8-6.1 5.4-15.5 9.6-26.4 11.7zm29.4-15.1c-10-8.1-26-12.9-43.3-12.9-18.7 0-35.9 5.7-45.5 14.9-3.6-3.8-5.7-8.2-5.7-12.8 0-15.1 22.1-27.4 49.3-27.4s49.3 12.3 49.3 27.4c-.1 3.8-1.6 7.5-4.1 10.8z"/><path d="m1094.9 2892.1c-.5-3.9-1-7.9-1.4-12l-15.8-157.2c-2.8-27.4-8-59.2-33.9-90.1-26.3-31.4-58.5-59.8-95.7-84.5-35.5-23.6-75.8-43.9-119.5-60.2-84.2-31.5-180.5-48.1-278.7-48.1-98.1 0-194.5 16.6-278.7 48.1-43.8 16.4-84 36.6-119.5 60.2-37.2 24.7-69.4 53.1-95.7 84.5-25.9 30.9-31.1 62.7-33.9 90.1l-15.8 157.1c-.5 4.2-1 8.2-1.4 12.1-3.7 31.1-6.7 55.6-3.5 94.7l8.6 181.1c.1 2.7.2 5 .3 7 .6 15.1.9 16 10.9 29.3.9 1.2 1.9 2.5 3 4l16.8 22.6c1.6 2.1 3.1 4.3 4.6 6.6 7.8 11.4 16.7 24.3 32.9 25.3 82.9 5.2 211.8 4.4 325.4 3.6 51.3-.3 99.8-.7 140.5-.4h10.9c40.7-.2 89.1.1 140.4.4 41.5.3 85 .6 127.6.6 74.1 0 145.3-.9 197.9-4.2 16.2-1 25.1-13.9 32.9-25.3 1.6-2.3 3.1-4.5 4.6-6.6l16.8-22.6c1.1-1.5 2.1-2.8 3-4 10-13.4 10.3-14.2 10.9-29.3.1-2 .2-4.4.3-7l8.6-181.1c3.3-39.1.3-63.6-3.4-94.7zm-1064.4-168.4c2.8-27.3 7.6-56.5 32-85.5 25.8-30.8 57.4-58.6 93.9-82.9 35-23.2 74.6-43.2 117.8-59.3 83.2-31.1 178.6-47.5 275.7-47.5s192.4 16.4 275.7 47.5c43.2 16.1 82.8 36.1 117.8 59.3 36.5 24.2 68.1 52.1 93.9 82.9 24.4 29.1 29.2 58.2 32 85.5l15.7 157.3c.3 2.6.6 5.1.9 7.5-4-8.4-9-15.7-15.1-22.1-22.9-24-60.8-35.4-119.2-35.8h-22.3c-3.2-11.9-25.4-20.6-53.3-20.6s-50.1 8.7-53.3 20.6h-1.7-20.7c-3.2-11.9-25.4-20.6-53.3-20.6s-50.1 8.7-53.3 20.6h-1.6-23.7c-3.2-11.9-25.4-20.6-53.3-20.6s-50.1 8.7-53.3 20.6h-1.6-20-1.6c-3.2-11.9-25.4-20.6-53.3-20.6s-50.1 8.7-53.3 20.6h-23.7-1.6c-3.2-11.9-25.4-20.6-53.3-20.6s-50.1 8.7-53.3 20.6h-20.7-1.6c-3.2-11.9-25.4-20.6-53.3-20.6s-50.1 8.7-53.3 20.6h-22.3c-58.4.5-96.3 11.8-119.2 35.8-6.1 6.4-11.1 13.7-15.1 22.1.3-2.5.6-5 .9-7.6zm239.3 142.2s0-.1.1-.1c.4-.7.7-1.5 1.1-2.2 0-.1.1-.1.1-.2.4-.8.7-1.6 1-2.4l.2-.4c.6-1.3 1.1-2.7 1.6-4.1 0-.1.1-.2.1-.3.2-.6.4-1.2.6-1.8.1-.4.2-.7.3-1.1.2-.5.3-1.1.5-1.6.1-.5.3-.9.4-1.4s.3-.9.4-1.4c.2-.7.3-1.4.5-2.1.1-.4.2-.8.3-1.1.2-.8.3-1.7.5-2.5.1-.3.1-.7.2-1 .1-.7.2-1.3.3-2 .1-.4.1-.7.1-1.1.1-.7.2-1.4.2-2.1 0-.3.1-.6.1-1s.1-.7.1-1.1h20.7v.5.5c0 .2 0 .5.1.7.1.9.2 1.8.3 2.7v.3c.9 7.1 2.7 14 5.3 20.6l.5 1.1c.5 1.1.9 2.1 1.4 3.2v.1c.4.8.8 1.7 1.2 2.5.1.2.2.4.3.5.3.6.7 1.2 1 1.8h-41.3c.6-1.2 1.2-2.3 1.8-3.5zm-20.3-15.6c-7.8-1.8-16.7-2.8-25.7-2.8s-17.9 1-25.7 2.8c-7.5 1.8-13.9 4.2-18.6 7.3-1.1-2.7-2-5.5-2.7-8.3 0-.1-.1-.3-.1-.4-.2-.6-.3-1.3-.5-1.9 0-.2-.1-.4-.1-.7-.3-1.3-.6-2.7-.8-4v-.1c-.1-.4-.1-.9-.2-1.3-.1-.5-.1-.9-.2-1.4-.1-.4-.1-.8-.1-1.2-.1-.5-.1-1.1-.2-1.6 0-.4-.1-.7-.1-1.1-.1-.8-.1-1.5-.1-2.3v-.1c1-11.2 26.4-18.7 49.5-18.7 23 0 48.3 7.5 49.5 18.6v.8l.1 1.2h.8c0 .2 0 .4-.1.6 0 .2 0 .4-.1.6-.8 7.6-2.7 15-5.4 21.8-4.8-3.4-11.4-6-19.2-7.8zm59 7.2c-1-2.7-1.9-5.5-2.7-8.3 0-.2-.1-.3-.1-.5-.2-.6-.3-1.2-.5-1.9-.1-.2-.1-.5-.2-.7-.2-1-.4-2-.6-2.9-.1-.4-.1-.8-.2-1.2s-.1-.8-.2-1.3-.1-1-.2-1.5c0-.4-.1-.8-.1-1.2-.1-.6-.1-1.1-.2-1.7 0-.3-.1-.7-.1-1-.1-.8-.1-1.5-.1-2.3v-.1c1.1-11.2 26.4-18.7 49.5-18.7 23 0 48.4 7.5 49.5 18.7l.2 1.9h.8c0 .2 0 .4-.1.7 0 .2 0 .4-.1.6-.8 7.6-2.7 15-5.4 21.8-4.8-3.2-11.4-5.8-19.2-7.6s-16.7-2.8-25.7-2.8-17.9 1-25.7 2.8c-7.5 1.7-13.9 4.2-18.6 7.2zm90.4 8.4s0-.1.1-.1c.4-.7.7-1.5 1.1-2.2 0-.1.1-.1.1-.2.4-.8.7-1.6 1-2.4l.2-.4c.6-1.4 1.1-2.7 1.6-4.1 0-.1.1-.2.1-.3.2-.6.4-1.2.6-1.8.1-.4.2-.7.3-1.1.2-.5.3-1.1.5-1.6.1-.5.3-.9.4-1.4s.3-1 .4-1.4c.2-.7.3-1.4.5-2.1.1-.4.2-.8.3-1.2.2-.8.3-1.6.5-2.4.1-.4.1-.7.2-1.1.1-.7.2-1.3.3-2 .1-.4.1-.7.2-1.1.1-.7.2-1.4.2-2.1 0-.3.1-.6.1-1s.1-.7.1-1.1h23.7v.5.5c0 .2 0 .5.1.7.1.9.2 1.8.3 2.6v.3c.9 7.1 2.7 14 5.3 20.6l.5 1.2c.4 1.1.9 2.1 1.4 3.2 0 0 0 .1.1.1.4.8.8 1.6 1.2 2.4.1.2.2.4.3.6.3.6.7 1.2 1 1.8h-44.4c.5-1.1 1.1-2.2 1.7-3.4zm41.6-8.4c-1.1-2.7-2-5.5-2.7-8.3 0-.1-.1-.3-.1-.4-.2-.6-.3-1.3-.5-1.9-.1-.2-.1-.5-.1-.7-.3-1.2-.5-2.4-.7-3.7 0-.2-.1-.3-.1-.5-.1-.4-.1-.9-.2-1.3-.1-.5-.1-1-.2-1.5-.1-.4-.1-.8-.1-1.2-.1-.6-.1-1.1-.2-1.7 0-.3-.1-.7-.1-1-.1-.8-.1-1.5-.1-2.3v-.1c1-11.2 26.4-18.7 49.5-18.7 23 0 48.3 7.5 49.5 18.7v.8l.1 1.2h.8c0 .2 0 .4-.1.7 0 .2 0 .4-.1.6-.8 7.6-2.7 15-5.4 21.8-4.8-3.2-11.4-5.8-19.2-7.6s-16.7-2.8-25.7-2.8-17.9 1-25.7 2.8c-7.4 1.6-13.8 4.1-18.6 7.1zm90.4 8.4s0-.1.1-.1c.4-.7.7-1.5 1.1-2.2 0-.1.1-.1.1-.2.4-.8.7-1.6 1.1-2.4l.2-.4c.6-1.3 1.1-2.7 1.6-4.1 0-.1.1-.2.1-.3.2-.6.4-1.2.6-1.8.1-.4.2-.7.3-1.1.2-.5.3-1.1.5-1.6.1-.5.3-.9.4-1.4s.3-.9.4-1.4c.2-.7.3-1.4.5-2.1.1-.4.2-.8.3-1.1.2-.8.3-1.7.5-2.5.1-.3.1-.7.2-1 .1-.7.2-1.3.3-2 .1-.4.1-.7.1-1.1.1-.7.2-1.4.2-2.1 0-.3.1-.6.1-1s.1-.7.1-1.1h20.6c0 .4.1.7.1 1.1 0 .3.1.6.1 1 .1.7.2 1.4.2 2.1 0 .4.1.7.2 1.1.1.7.2 1.3.3 2 .1.4.1.7.2 1.1.1.8.3 1.6.5 2.5l.3 1.2c.2.7.3 1.4.5 2.1.1.5.3 1 .4 1.4.1.5.3.9.4 1.4.2.5.3 1.1.5 1.6.1.4.2.7.3 1.1l.6 1.8c0 .1.1.2.1.3.5 1.4 1 2.8 1.6 4.1l.2.4c.3.8.7 1.6 1 2.4 0 .1.1.1.1.2.3.8.7 1.5 1.1 2.2 0 0 0 .1.1.1.6 1.2 1.2 2.3 1.8 3.4h-41.6c.4-1.3 1-2.4 1.6-3.6zm39-8c-2.7-6.8-4.6-14.1-5.4-21.8 0-.2 0-.4-.1-.6 0-.2 0-.4-.1-.6h.8l.2-1.9c1.1-11.2 26.4-18.7 49.5-18.7 23 0 48.4 7.5 49.5 18.7v.1c0 .8-.1 1.6-.1 2.3 0 .3-.1.6-.1.9-.1.6-.1 1.2-.2 1.8 0 .4-.1.8-.1 1.1-.1.5-.1 1-.2 1.5-.1.4-.1.8-.2 1.2-.1.5-.2.9-.2 1.3-.2.9-.3 1.8-.6 2.8-.1.2-.1.5-.2.7-.1.6-.3 1.3-.5 1.9 0 .2-.1.3-.1.5-.7 2.8-1.6 5.6-2.7 8.3-4.8-3-11.1-5.5-18.6-7.3-7.8-1.8-16.7-2.8-25.7-2.8s-17.9 1-25.7 2.8c-7.8 2-14.4 4.6-19.2 7.8zm89.4 9.6c.1-.2.2-.3.3-.5.4-.8.8-1.7 1.2-2.5 0 0 0 0 0-.1.5-1.1 1-2.1 1.4-3.2l.5-1.2c2.6-6.6 4.4-13.5 5.3-20.6 0-.1 0-.2 0-.3.1-.9.2-1.7.3-2.6 0-.2 0-.5.1-.7 0-.2 0-.3 0-.5s0-.3 0-.5h23.7c0 .4.1.7.1 1.1 0 .3.1.6.1 1 .1.7.2 1.4.2 2.1 0 .4.1.7.2 1.1.1.7.2 1.3.3 2 .1.4.1.7.2 1.1.1.8.3 1.6.5 2.4l.3 1.2c.2.7.3 1.4.5 2.1.1.5.3 1 .4 1.4.1.5.2.9.4 1.4s.3 1.1.5 1.6c.1.4.2.7.3 1.1.2.6.4 1.2.6 1.8 0 .1.1.2.1.3.5 1.4 1 2.8 1.6 4.1l.2.4c.3.8.7 1.6 1 2.4 0 .1 0 .1.1.2.3.8.7 1.5 1.1 2.2 0 0 0 .1.1.1.6 1.2 1.2 2.3 1.8 3.5h-44.4c.3-.7.7-1.3 1-1.9zm42.7-9.6c-2.7-6.8-4.6-14.1-5.4-21.8 0-.2 0-.4-.1-.6 0-.2 0-.4-.1-.6h.8l.1-1.2v-.8c1.1-11.2 26.5-18.7 49.5-18.7s48.4 7.5 49.5 18.7v.1c0 .8-.1 1.6-.1 2.3 0 .3-.1.6-.1.9-.1.6-.1 1.2-.2 1.8 0 .4-.1.7-.1 1.1-.1.5-.1 1.1-.2 1.6-.1.4-.1.8-.2 1.2-.1.8-.3 1.6-.4 2.4-.1.6-.2 1.1-.3 1.7-.1.3-.1.6-.2.9-.1.6-.3 1.2-.4 1.8 0 .2-.1.4-.2.6-.7 2.8-1.6 5.6-2.7 8.3-4.8-3-11.1-5.5-18.6-7.3-7.8-1.8-16.7-2.8-25.7-2.8s-17.9 1-25.7 2.8-14.4 4.4-19.2 7.6zm89.4 9.6c.1-.2.2-.3.3-.5.4-.8.8-1.7 1.2-2.5v-.1c.5-1.1 1-2.1 1.4-3.2l.5-1.2c2.6-6.6 4.4-13.5 5.3-20.6 0-.1 0-.2 0-.3.1-.9.2-1.7.3-2.6 0-.2 0-.5.1-.7 0-.2 0-.3 0-.5s0-.3 0-.5h20.7c0 .4.1.7.1 1.1 0 .3.1.6.1 1 .1.7.2 1.4.2 2.1 0 .4.1.7.2 1.1.1.7.2 1.3.3 2 .1.4.1.7.2 1.1.1.8.3 1.6.5 2.4l.3 1.2c.2.7.3 1.4.5 2.1.1.5.3 1 .4 1.4.1.5.2.9.4 1.4s.3 1.1.5 1.6c.1.4.2.7.3 1.1l.6 1.8c0 .1.1.2.1.3.5 1.4 1 2.8 1.6 4.1l.2.4c.3.8.7 1.6 1.1 2.4 0 .1 0 .1.1.2.3.8.7 1.5 1.1 2.2 0 0 0 .1.1.1.6 1.2 1.2 2.3 1.8 3.5h-41.4c.2-.7.5-1.3.9-1.9zm39.6-9.6c-2.7-6.8-4.6-14.1-5.4-21.8 0-.2 0-.4-.1-.6 0-.2 0-.4-.1-.6h.8l.2-1.9c1-11.2 26.4-18.7 49.5-18.7s48.4 7.5 49.5 18.7v.1c0 .8-.1 1.6-.1 2.3 0 .3-.1.6-.1.9-.1.6-.1 1.2-.2 1.8 0 .4-.1.8-.1 1.1-.1.5-.1 1-.2 1.5-.1.4-.1.8-.2 1.2-.1.5-.2 1-.3 1.5-.2.9-.3 1.8-.5 2.6-.1.3-.1.5-.2.8-.1.6-.3 1.2-.5 1.9 0 .2-.1.3-.1.5-.7 2.8-1.6 5.6-2.7 8.3-4.8-3-11.1-5.5-18.6-7.3-7.8-1.8-16.7-2.8-25.7-2.8s-17.9 1-25.7 2.8c-7.8 1.9-14.4 4.5-19.2 7.7zm-803.1 341.3c-4.5-6-6.8-9-7.8-11.8-1-2.7-1.1-6.1-1.4-12.7-.1-2.1-.2-4.4-.3-7.1l-8.6-181.2v-.1c-2.7-32.5-1-54.9 1.8-79.7 4.2-15.1 10.9-27.3 20.3-37.1 21.8-22.8 59.7-34.1 116.1-34.5h22v.5.5c0 .2 0 .5.1.7.1.9.2 1.7.3 2.6v.3c.9 7.1 2.7 14 5.3 20.6l.5 1.2c.4 1.1.9 2.1 1.4 3.2 0 0 0 .1.1.1l1.2 2.4c.1.2.2.4.3.6.3.6.7 1.2 1 1.8h-57.5c-30.4-1.1-53.4 5.6-68.4 19.8-13.9 13.2-21.2 33.1-21.6 59.2l6.9 264.8v1.7l-8.8-11.8c-1-1.5-2-2.8-2.9-4zm992.8 55c-82.6 5.2-211.3 4.3-324.9 3.6-38.6-.3-75.7-.5-109-.5-10.9 0-21.4 0-31.5.1-3.6 0-7.2 0-10.8 0-40.8-.2-89.3.1-140.6.4-113.5.7-242.2 1.6-324.9-3.6-12.1-.8-19.1-10.9-26.5-21.6-1.6-2.3-3.2-4.6-4.8-6.8l-3.4-4.6c-.3-2-.4-4.5-.4-8l-6.9-264.8c.4-24.9 7.3-43.8 20.3-56.1 14.1-13.4 36.1-19.7 65.4-18.7h60.1c4.6 7.2 10.2 13.1 16.2 17.5.1.1.2.1.3.2.6.5 1.3.9 1.9 1.3.2.1.4.2.6.4.5.3 1 .6 1.5 1 .3.2.6.4.9.5.4.2.8.4 1.2.6s.7.4 1.1.5c.5.2.9.4 1.4.7.3.2.7.3 1.1.5s.8.3 1.2.5.9.3 1.4.5c.4.1.7.2 1.1.4.4.1.9.3 1.3.4s.9.2 1.3.4c.3.1.5.1.8.2.6.1 1.2.3 1.9.4.2 0 .4.1.6.1.7.1 1.4.2 2 .3h.4c.8.1 1.5.1 2.3.1h.8c.7 0 1.5 0 2.2-.1h.2c13.3-.9 26.5-9.1 36.5-22.7.4-.5.7-1 1.1-1.5.1-.2.3-.4.4-.6.3-.5.7-1 1-1.5 0 0 .1-.1.1-.1h46.5c4.6 7.2 10.2 13.1 16.2 17.5.1.1.2.1.3.2.6.5 1.3.9 1.9 1.3.2.1.4.2.6.4.5.3 1 .6 1.5.9.3.2.6.4 1 .6s.8.4 1.2.6.7.4 1.1.6.9.4 1.3.6.7.3 1.1.5.8.3 1.1.5c.5.2.9.4 1.4.5.3.1.7.2 1 .4.4.1.9.3 1.3.4s.9.2 1.3.4c.3.1.5.1.8.2.6.1 1.2.3 1.9.4.2 0 .4.1.6.1.7.1 1.4.2 2 .3h.4c.8.1 1.5.1 2.3.1h.8c.7 0 1.5 0 2.2-.1h.2c13.3-.9 26.5-9.1 36.5-22.7.4-.5.7-1 1.1-1.5.1-.2.3-.4.4-.6.3-.5.7-1 1-1.5 0 0 .1-.1.1-.1h49.5c2.8 4.3 5.9 8.2 9.2 11.6 2.2 2.2 4.5 4.2 6.9 6 .1.1.2.1.3.2.6.5 1.3.9 1.9 1.3.2.1.4.2.6.4.5.3 1 .6 1.5.9.3.2.7.4 1 .6.4.2.8.4 1.1.6.4.2.7.4 1.1.6s.9.4 1.3.6.7.3 1.1.5.8.3 1.1.5c.5.2.9.4 1.4.5.3.1.7.2 1 .4.4.1.9.3 1.3.4s.9.2 1.3.4c.3.1.5.1.8.2.6.1 1.2.3 1.9.4.2 0 .4.1.6.1.7.1 1.4.2 2 .3h.4c.8.1 1.5.1 2.3.1h.8c.7 0 1.5 0 2.2-.1h.2c13.8-.9 27.4-9.7 37.6-24.2.1-.2.3-.4.4-.6.3-.5.7-1 1-1.5 0 0 .1-.1.1-.1h46.7s.1.1.1.1c.3.5.7 1 1 1.5.1.2.3.4.4.6 10.1 14.5 23.8 23.2 37.6 24.2h.2c.7 0 1.5.1 2.2.1h.8c.8 0 1.5-.1 2.3-.1h.4c.7-.1 1.4-.2 2-.3.2 0 .4-.1.6-.1.6-.1 1.2-.2 1.9-.4.3-.1.5-.1.8-.2.4-.1.9-.2 1.3-.4.4-.1.9-.3 1.3-.4s.7-.2 1.1-.4.9-.3 1.3-.5.8-.3 1.2-.5c.4-.1.7-.3 1-.5.5-.2.9-.4 1.4-.7.3-.2.7-.4 1-.5.4-.2.8-.4 1.2-.7.3-.2.6-.4.9-.5.5-.3 1-.6 1.6-1 .2-.1.4-.2.5-.4.6-.4 1.3-.9 1.9-1.3.1-.1.2-.1.2-.2 6-4.4 11.5-10.4 16.2-17.5h49.5s.1.1.1.1c.3.5.7 1 1 1.5.1.2.3.4.4.6 10.1 14.5 23.8 23.2 37.6 24.2h.2c.7 0 1.5.1 2.2.1h.8c.8 0 1.5-.1 2.3-.1h.4c.7-.1 1.4-.2 2-.3.2 0 .4-.1.6-.1.6-.1 1.2-.2 1.9-.4.3-.1.5-.1.8-.2.4-.1.9-.2 1.3-.4.4-.1.9-.3 1.3-.4.3-.1.7-.2 1-.4.5-.2.9-.3 1.4-.5.4-.1.8-.3 1.1-.5.4-.2.7-.3 1.1-.5s.9-.4 1.3-.6.7-.4 1.1-.6.8-.4 1.1-.6.7-.4 1-.6l1.5-.9c.2-.1.4-.2.6-.4.6-.4 1.3-.9 1.9-1.3.1-.1.2-.1.3-.2 6-4.4 11.5-10.3 16.2-17.5h46.5s.1.1.1.1c.3.5.7 1 1 1.5.1.2.3.4.4.6 10.1 14.5 23.8 23.2 37.6 24.2h.2c.7 0 1.5.1 2.2.1h.8c.8 0 1.5-.1 2.3-.1h.4c.7-.1 1.4-.2 2-.3.2 0 .4-.1.6-.1.6-.1 1.2-.2 1.7-.3h.1c.3-.1.5-.1.8-.2.4-.1.9-.2 1.3-.4.4-.1.9-.3 1.3-.4.3-.1.7-.2 1-.4.5-.2.9-.3 1.4-.5.4-.2.8-.3 1.1-.5.4-.2.7-.3 1.1-.5s.9-.4 1.3-.6.7-.4 1.1-.6.8-.4 1.2-.6c.3-.2.6-.4 1-.6.5-.3 1-.6 1.5-.9.2-.1.4-.2.6-.4.6-.4 1.3-.9 1.9-1.3.1-.1.2-.1.3-.2 6-4.4 11.5-10.4 16.2-17.5h60.3c29.2-1 51.2 5.2 65.3 18.7 13 12.4 19.9 31.3 20.3 56l-6.9 265c0 3.5-.1 5.9-.4 7.9l-3.4 4.6c-1.6 2.2-3.3 4.6-4.8 6.8-7.3 10.7-14.3 20.8-26.4 21.5zm69.2-268-8.6 181.3c-.1 2.7-.2 5.1-.3 7.1-.2 6.7-.4 10-1.4 12.7-1 2.8-3.3 5.8-7.8 11.8-.9 1.2-1.9 2.5-3 4l-8.8 11.8c0-.5 0-1.1 0-1.7l6.9-265c-.5-26.1-7.7-46-21.6-59.2-15-14.2-38-20.9-68.3-19.8h-57.5c.3-.6.7-1.2 1-1.8.1-.2.2-.3.3-.5.4-.8.8-1.7 1.2-2.5 0 0 0 0 0-.1.5-1.1 1-2.1 1.4-3.2l.5-1.1c2.6-6.6 4.4-13.5 5.3-20.6 0-.1 0-.2 0-.3.1-.9.2-1.7.3-2.6 0-.2 0-.5.1-.7 0-.2 0-.3 0-.5s0-.3 0-.5h22c56.4.4 94.4 11.7 116.2 34.5 9.4 9.8 16.1 22 20.3 37.1 2.8 24.9 4.5 47.2 1.8 79.8z"/><path d="m284.4 3168.8v-107.2h-109.9v107.2 37.1h109.8v-37.1zm-105.6-102.9h101.3v98.7h-101.3zm0 135.8v-32.9h101.3v32.9z"/><path d="m410.3 3168.8v-107.2h-109.8v107.2 37.1h109.8zm-105.6-102.9h101.3v98.7h-101.3zm0 135.8v-32.9h101.3v32.9z"/><path d="m537 3168.8v-107.2h-109.9v107.2 37.1h109.9zm-105.6-102.9h101.3v98.7h-101.3zm0 135.8v-32.9h101.3v32.9z"/><path d="m669.4 3168.8v-107.2h-109.9v107.2 37.1h109.8v-37.1zm-105.6-102.9h101.3v98.7h-101.3zm0 135.8v-32.9h101.3v32.9z"/><path d="m795.3 3168.8v-107.2h-109.8v107.2 37.1h109.8zm-105.6-102.9h101.3v98.7h-101.3zm0 135.8v-32.9h101.3v32.9z"/><path d="m922 3168.8v-107.2h-109.8v107.2 37.1h109.8zm-105.6-102.9h101.3v98.7h-101.3zm0 135.8v-32.9h101.3v32.9z"/><path d="m254 3079.6h-49.1c-6.6 0-12 5.4-12 12v47.2c0 6.6 5.4 12 12 12h49.1c6.6 0 12-5.4 12-12v-47.2c0-6.6-5.4-12-12-12z"/><path d="m380.6 3079.6h-49.1c-6.6 0-12 5.4-12 12v47.2c0 6.6 5.4 12 12 12h49.1c6.6 0 12-5.4 12-12v-47.2c0-6.6-5.4-12-12-12z"/><path d="m506.6 3079.6h-49.1c-6.6 0-12 5.4-12 12v47.2c0 6.6 5.4 12 12 12h49.1c6.6 0 12-5.4 12-12v-47.2c0-6.6-5.4-12-12-12z"/><path d="m893.5 3079.6h-49.1c-6.6 0-12 5.4-12 12v47.2c0 6.6 5.4 12 12 12h49.1c6.6 0 12-5.4 12-12v-47.2c.1-6.6-5.4-12-12-12z"/><path d="m765.9 3079.6h-49.1c-6.6 0-12 5.4-12 12v47.2c0 6.6 5.4 12 12 12h49.1c6.6 0 12-5.4 12-12v-47.2c.1-6.6-5.3-12-12-12z"/><path d="m639.9 3079.6h-49.1c-6.6 0-12 5.4-12 12v47.2c0 6.6 5.4 12 12 12h49.1c6.6 0 12-5.4 12-12v-47.2c.1-6.6-5.4-12-12-12z"/><path d="m941.4 3049.7.1-1.8h-.6l-5.5-18.4h-.8c.3-11.4.6-22.8.8-34.2.5-23.9 1.2-48.4 1.9-72.1l.1-3.3h-781.7l.1 2.2c.5 14.7 1 29.6 1.6 44.1.4 9.7.7 19.4 1.1 29 .4 11.9.9 23.9 1.3 34.3h-1.2l-6.3 18.4h-.7l.1 1.8-.8 2.4h.9l5.9 167.6h779l4.8-167.6h.8zm-8.5-125.5c-.7 23.4-1.3 47.5-1.9 71-.2 11.4-.5 22.7-.8 34h-766.3c-.4-10.3-.9-22.3-1.3-34.1-.3-9.7-.7-19.3-1.1-29-.5-13.7-1.1-27.8-1.5-41.8h772.9zm-771.4 109.5h770.6l4.3 14.1h-779.7zm770.9 181.8h-770.8l-5.7-163.4h781.2z"/></g></svg>