<svg height="960" viewBox="0 0 960 960" width="960" xmlns="http://www.w3.org/2000/svg"><g fill="none" fill-rule="evenodd"><path d="m418.700854 47.6752969c81.772056-6.677944 339.80942.163164 422.662115 79.7958451 83.406464 80.164928 96.027009 175.333281 96.027009 339.021811 0 162.712234-29.169062 232.832057-53.187973 270.679639-24.370336 38.401335-101.693184 126.044438-241.072296 155.381754-136.408256 28.711993-277.22927 39.892494-429.794345-51.562464-114.7009871-68.757374-169.8536652-192.870705-180.6704407-263.683405-7.7710543-50.873696-15.3008004-157.648353-6.1824235-223.060585 16.3724907-117.450856 40.3208997-191.447734 102.9593562-229.455668 86.426969-52.4423937 208.37136-70.5112094 289.258998-77.1169271z" stroke="#000" stroke-linejoin="round" stroke-width="40"/><g fill="#000"><path d="m589.126373 225.169126 42.898941-1.225684v120.117033l-42.898941 3.677052z"/><path d="m431.228308 607.108975v63.462935l85.748296-12.236383v-59.783691z"/><path d="m711.909945 567.044365v59.402921l71.173242-9.898264v-55.959055z"/></g><path d="m846.034527 161.030549c2.647418 2.776984 13.491307 17.153024 15.845449 20.534899 48.193358 69.232824 55.120024 154.643424 55.120024 284.29466 0 155.97462-27.000225 223.680144-50.062802 260.040053-23.062577 36.35991-96.567746 118.838246-228.251824 146.57056-32.595457 6.864516-65.463914 12.737907-98.709645 16.34884-3.403718.36969-21.0316 1.492933-39.072077 2.482073l-2.165954.117996c-17.329331.937912-34.52976 1.719511-39.381697 1.559457-99.20716-3.272616-132.945725-35.485549-163.840827-72.674284-35.096548-42.246057-65.515174-129.468358-65.515174-287.842004s9.086279-244.326096 80.533703-322.856836 189.5509-104.149538 290.792719-108.825721c96.009411-4.434507 196.130658 9.295451 244.708105 60.250307zm-10.455473 43.999559c-41.144299-43.146769-127.691653-48.762389-206.990656-45.100653-88.531142 4.088042-193.755671 23.531616-256.819646 92.829852-64.145229 70.486378-67.768752 149.28447-67.768752 289.784729 0 139.486198 22.920754 218.803685 54.196676 256.441085 24.082824 28.981238 51.193242 52.470861 127.768438 54.996248 9.244239.304867 67.494185-3.223043 73.718633-3.898927 31.630862-3.434649 62.897486-9.051336 93.908675-15.580521 112.906703-23.771703 177.101124-93.511406 196.972944-124.832746 20.733135-32.678918 42.434634-94.402576 42.434634-233.714208 0-115.904694-2.88416-193.819419-46.328519-256.213873-.753322-1.081915-2.700472-3.778608-4.78405-6.594568l-.545942-.736321c-2.373132-3.193923-4.803104-6.374076-5.762435-7.380097z" stroke="#000" stroke-linecap="round" stroke-linejoin="round" stroke-width="20"/></g></svg>