<?xml version="1.0" encoding="UTF-8"?>
<svg width="960px" height="960px" viewBox="0 0 960 960" version="1.1" xmlns="http://www.w3.org/2000/svg" xmlns:xlink="http://www.w3.org/1999/xlink">
    <title>pair-icon</title>
    <style type="text/css">
#pair {
	animation: fillpulse 3s infinite;
}

@keyframes fillpulse {
	0%, 20%, 40%, 60%, 100% {
		fill: #FFFFFF;
	}
	10%, 30%, 50% {
		fill: #0074CC;
	}
}
</style>
    <g id="com.fibaro/drivers/FGWPG-111/assets/pair" stroke="none" stroke-width="1" fill="none" fill-rule="evenodd">
        <path d="M46.2909668,357.009165 C61.4376305,248.351989 81.1997834,177.458572 139.81692,141.890705 C223.618326,91.0414573 341.960627,74.0088963 420.328742,67.6089364 C498.696857,61.2089764 747.644864,65.1354195 827.503813,141.890705 C907.362762,218.64599 917.389978,310.564509 917.389978,466.492953 C917.389978,622.421398 890.383438,690.106877 867.315468,726.456022 C844.247497,762.805168 770.725136,845.259087 639.01026,872.98319 C507.295383,900.707294 371.123778,912.259827 223.618326,823.837854 C115.053741,758.758938 62.6788484,641.346555 52.4355973,574.288468 C44.86655,524.737225 37.4081587,420.731505 46.2909668,357.009165 Z" id="Path-32" stroke="#000000" stroke-width="20" stroke-linecap="round" stroke-linejoin="round" transform="translate(479.820560, 479.330610) scale(-1, 1) translate(-479.820560, -479.330610) "></path>
        <polygon id="Rectangle" fill="#000000" transform="translate(331.065276, 319.840485) scale(-1, 1) translate(-331.065276, -319.840485) " points="309.615806 259.169126 352.514746 257.943442 352.514746 378.060475 309.615806 381.737527"></polygon>
        <polygon id="Path-34" fill="#000000" transform="translate(467.538664, 668.561873) scale(-1, 1) translate(-467.538664, -668.561873) " points="424.664516 641.108975 424.664516 704.57191 510.412812 692.335527 510.412812 632.551836"></polygon>
        <polygon id="Path-34" fill="#000000" transform="translate(194.144553, 627.518626) scale(-1, 1) translate(-194.144553, -627.518626) " points="158.557933 601.044365 158.557933 660.447286 229.731174 650.549022 229.731174 594.589967"></polygon>
        <path d="M658.056366,161.030549 C660.703784,163.807533 671.547673,178.183573 673.901815,181.565448 C722.095172,250.798272 729.021839,336.208872 729.021839,465.860108 C729.021839,621.834728 702.021614,689.540252 678.959037,725.900161 C655.89646,762.260071 582.391291,844.738407 450.707212,872.470721 C418.111755,879.335237 385.243299,885.208628 351.997568,888.819561 C348.593849,889.189251 330.965968,890.312494 312.92549,891.301634 L310.759537,891.41963 C293.430206,892.357542 276.229776,893.139141 271.37784,892.979087 C172.17068,889.706471 138.432115,857.493538 107.537013,820.304803 C72.440465,778.058746 42.0218389,690.836445 42.0218389,532.462799 C42.0218389,374.089153 51.1081177,288.136703 122.555542,209.605963 C194.002965,131.075223 312.106442,105.456425 413.348261,100.780242 C509.357672,96.345735 609.478919,110.075693 658.056366,161.030549 Z M647.600893,205.030108 C606.456594,161.883339 519.90924,156.267719 440.610237,159.929455 C352.079095,164.017497 246.854566,183.461071 183.790591,252.759307 C119.645362,323.245685 116.021839,402.043777 116.021839,542.544036 C116.021839,682.030234 138.942593,761.347721 170.218515,798.985121 C194.301339,827.966359 221.411757,851.455982 297.986953,853.981369 C307.231191,854.286236 365.481138,850.758326 371.705586,850.082442 C403.336448,846.647793 434.603072,841.031106 465.614261,834.501921 C578.520964,810.730218 642.715385,740.990515 662.587205,709.669175 C683.32034,676.990257 705.021839,615.266599 705.021839,475.954967 C705.021839,360.050273 702.137679,282.135548 658.69332,219.741094 C657.939998,218.659179 655.992848,215.962486 653.90927,213.146526 L653.363328,212.410205 C650.990196,209.216282 648.560224,206.036129 647.600893,205.030108 Z" id="Combined-Shape" stroke="#000000" stroke-width="10" stroke-linecap="round" stroke-linejoin="round" transform="translate(385.831479, 497.123774) scale(-1, 1) translate(-385.831479, -497.123774) "></path>
        <path d="M742.829088,247.07202 C770.81366,273.168055 810.303623,276.303004 831.032389,254.074124 C851.761155,231.845244 845.879161,192.67016 817.894589,166.574124 C789.910017,140.478089 750.420054,137.34314 729.691288,159.57202 C708.962523,181.8009 714.844516,220.975984 742.829088,247.07202 Z" id="pair" fill="#0074CC"></path>
        <path d="M742.829088,247.07202 C770.81366,273.168055 810.303623,276.303004 831.032389,254.074124 C851.761155,231.845244 845.879161,192.67016 817.894589,166.574124 C789.910017,140.478089 750.420054,137.34314 729.691288,159.57202 C708.962523,181.8009 714.844516,220.975984 742.829088,247.07202 Z" id="Oval" stroke="#000000" stroke-width="10" stroke-linecap="round" stroke-linejoin="round"></path>
    </g>
</svg>