<svg enable-background="new 0 0 483.685 362.362" height="362.362" viewBox="0 0 483.685 362.362" width="483.685" xmlns="http://www.w3.org/2000/svg"><path d="m424.357 155.115c-8.83-33.568-17.961-68.278-26.778-102.396l-.195-.755-.778-.041c-51.884-2.707-92.491-4.799-125.46-6.499-9.736-.502-18.793-.969-27.285-1.407l-143.005-7.995c-16.708-1.078-35.223-2.324-58.523-3.918l-1.297-.089.171 1.289c7.875 59.333 15.731 114.629 23.33 168.106 5.822 40.975 11.321 79.678 16.631 118.744l.139 1.023 1.027-.11c68.659-7.363 142.295-14.438 213.506-21.281 52.989-5.091 107.782-10.355 160.847-15.765l1.229-.125-.306-1.196c-10.785-42.182-22.207-85.598-33.253-127.585zm-128.719 142.557c-70.861 6.809-144.126 13.849-212.502 21.174-5.268-38.725-10.722-77.112-16.494-117.733-7.52-52.929-15.295-107.647-23.088-166.288l43.7 2.443c56.099 3.701 86.688 5.278 183.782 10.282.577.03 1.162.06 1.744.09l121.826 6.811 60.335 227.615c-52.582 5.352-106.826 10.563-159.303 15.606z"/><path d="m269.245 164.451c-.12 5.105-.264 10.23-.408 15.37-.029.002-.057.004-.057.004-2.084-5.017-4.156-10.043-6.222-15.064-2.071-5.034-4.135-10.064-6.215-15.105-1.144.036-2.288.072-3.403.107-.263 5.143-.512 10.301-.756 15.479-.245 5.195-.486 10.412-.712 15.646-.029.002-.057.004-.057.004-2.059-5.106-4.078-10.22-6.09-15.33-2.017-5.122-4.056-10.238-6.083-15.366-1.029.032-2.03.064-3.003.095 2.386 5.872 4.813 11.734 7.22 17.594 2.399 5.843 4.808 11.695 7.227 17.53.999-.065 1.97-.131 2.998-.198.262-5.351.539-10.688.791-16.004.251-5.294.507-10.572.778-15.833.029-.001.057-.002.086-.003 2.131 5.165 4.262 10.32 6.395 15.471 2.131 5.147 4.294 10.286 6.429 15.419.942-.061 1.885-.122 2.798-.183.214-5.877.456-11.737.675-17.567.218-5.804.441-11.598.665-17.363-.887.028-1.745.055-2.602.082-.154 5.055-.334 10.127-.454 15.215z"/><path d="m239.393 176.556c-.28-1.464-.68-2.708-1.261-3.721-.583-1.015-1.291-1.851-2.148-2.547-.824-.669-1.749-1.238-2.774-1.683-1.002-.434-2.096-.821-3.216-1.092-2.58-.625-5.138-1.222-7.753-1.828-.627-.145-1.265-.34-1.858-.581-.616-.25-1.163-.585-1.671-.996-.53-.428-.912-.944-1.278-1.561-.366-.618-.608-1.347-.756-2.198-.235-1.355-.231-2.495.039-3.423.27-.931.699-1.703 1.275-2.271.603-.595 1.347-1.018 2.22-1.295.899-.286 1.822-.443 2.851-.478 1.058-.035 2.091.104 3.123.422 1.035.319 1.983.813 2.846 1.472.864.66 1.622 1.48 2.277 2.488.646.994 1.075 2.185 1.371 3.551.943-.039 1.886-.078 2.858-.117-.322-1.83-.909-3.431-1.733-4.785-.834-1.369-1.877-2.493-3.04-3.392-1.164-.899-2.49-1.554-3.914-1.986-1.399-.424-2.869-.623-4.384-.576-2.116.065-3.827.484-5.044 1.253-1.219.771-2.142 1.696-2.741 2.765-.609 1.087-.982 2.223-1.048 3.417-.066 1.202-.044 2.241.109 3.125.247 1.427.656 2.626 1.227 3.595s1.206 1.772 1.977 2.429c.751.64 1.583 1.158 2.483 1.525.898.366 1.842.671 2.777.891 2.37.557 4.741 1.112 7.06 1.645.774.178 1.507.393 2.279.669.797.285 1.533.649 2.245 1.129.693.468 1.282 1.07 1.783 1.784.5.713.854 1.578 1.03 2.58.23 1.307.178 2.442-.184 3.389-.37.965-.927 1.759-1.601 2.391-.69.647-1.476 1.128-2.345 1.451-.893.332-1.701.514-2.5.565-1.371.087-2.714.019-3.996-.23-1.257-.245-2.43-.723-3.449-1.409-1.04-.7-1.911-1.666-2.637-2.884-.74-1.243-1.262-2.785-1.587-4.662-1 .055-1.971.107-2.943.16.304 2.258.896 4.174 1.773 5.745.878 1.573 1.963 2.832 3.225 3.788 1.263.956 2.735 1.634 4.336 2.023 1.626.395 3.327.524 5.126.405 1.742-.116 3.225-.399 4.439-.877 1.163-.458 2.135-1.037 2.876-1.721.725-.67 1.257-1.423 1.603-2.216.354-.812.616-1.582.741-2.353.124-.77.114-1.484.082-2.161-.033-.671-.092-1.208-.17-1.614z"/><path d="m109.426 172.006c.139.863.278 1.722.416 2.581 26.747-1.301 52.38-2.549 76.927-3.745-.136-.803-.272-1.606-.409-2.412-24.549 1.143-50.184 2.335-76.934 3.576z"/><path d="m303.716 153.695c-.578-1.174-1.319-2.155-2.158-2.955-.838-.799-1.781-1.402-2.776-1.787-1.019-.395-2.148-.567-3.32-.531-3.918.123-7.836.247-11.811.372 1.031 5.654 2.081 11.324 3.128 16.986 1.051 5.681 2.102 11.364 3.169 17.056.828-.055 1.685-.111 2.57-.168-.473-2.434-.918-4.865-1.363-7.296-.444-2.43-.888-4.862-1.361-7.292 3.086-.156 6.172-.313 9.258-.471 1.143-.058 2.195-.317 3.083-.798.843-.457 1.539-1.142 2.054-1.995.523-.867.904-1.889 1.042-3.089.138-1.198.047-2.546-.23-4.039-.276-1.497-.711-2.83-1.285-3.993zm-1.849 9.316c-.86 1.169-2.146 1.806-3.889 1.89-2.886.139-5.801.28-8.687.418-.423-2.314-.832-4.628-1.268-6.936-.437-2.31-.872-4.614-1.294-6.925 2.888-.099 5.776-.198 8.692-.298 1.744-.06 3.243.466 4.515 1.544 1.287 1.091 2.153 2.776 2.58 5.085.426 2.309.219 4.042-.649 5.222z"/><path d="m315.031 178.45c-.408-2.188-.802-4.383-1.222-6.565-.421-2.187-.842-4.373-1.249-6.558 4.715-.232 9.43-.464 14.059-.693-.167-.884-.333-1.769-.5-2.657-4.629.216-9.345.435-14.061.651-.371-1.992-.757-3.984-1.142-5.978-.384-1.988-.742-3.986-1.113-5.978 5.032-.173 10.065-.345 14.983-.514-.166-.88-.331-1.761-.498-2.644-5.748.182-11.553.364-17.444.55 1.055 5.523 2.097 11.056 3.14 16.592 1.044 5.544 2.09 11.101 3.123 16.661 5.911-.389 11.794-.774 17.59-1.154-.167-.887-.334-1.774-.502-2.664-4.997.314-10.052.631-15.164.951z"/><path d="m278.019 148.972c-.886.028-1.744.055-2.631.082 1.062 5.7 2.112 11.412 3.162 17.125 1.052 5.722 2.106 11.457 3.147 17.197.857-.057 1.742-.113 2.627-.171-1.069-5.725-2.121-11.44-3.173-17.152-1.049-5.693-2.099-11.395-3.132-17.081z"/><path d="m395.215 158.726c-16.147.746-32.809 1.521-50.07 2.324.132.69.263 1.377.395 2.064 17.26-.841 33.92-1.653 50.065-2.434-.13-.65-.26-1.3-.39-1.954z"/><path d="m481.121 290.174-3.441-13.458c-9.043-35.372-18.395-71.948-27.732-107.854-10.733-41.277-21.807-82.111-32.91-121.365-2.721-9.625-12.427-17.958-21.636-18.576-69.823-4.689-128.529-8.703-188.084-13.049-44.627-3.259-89.298-6.552-133.95-9.844l-54.189-3.994c-2.723-.199-5.233.483-7.408 1.937l-.046-.052-.28.263c-.789.565-1.533 1.231-2.221 2.005-.104.117-.199.243-.299.363l-2.602 2.445c-.587.465-1.138.983-1.651 1.552l-.219.206.02.021c-3.453 3.997-5.091 10.284-4.261 17.284 6.823 57.545 12.96 108.787 18.761 156.656 6.194 51.11 12.489 101.17 19.483 156.622 1.487 11.795 10.029 21.034 19.445 21.034.479 0 .962-.024 1.438-.072 53.194-5.329 108.232-11.84 168.258-19.904l2.266-.305 4.222 1.179 4.147 1.419.13.035c.033.007.065.009.098.015.225.1.483.191.77.288 1.459.604 4.213.91 8.187.91h.001c4.685 0 10.562-.46 14.925-1.166l88.297-10.356c.521-.057 1.005-.137 1.473-.227.082-.016.162-.033.243-.049 2.855-.589 4.724-1.738 5.937-2.938.031-.03.063-.059.094-.09.274-.279.512-.559.721-.834.029-.038.059-.075.087-.113.241-.33.436-.649.599-.95.008-.015.019-.027.026-.042.009-.018.015-.037.024-.054.097-.187.186-.369.258-.537.024-.057.037-.117.06-.174.074-.186.136-.375.196-.565.05-.157.102-.313.142-.472.045-.182.076-.367.109-.553.03-.171.067-.34.087-.512.019-.172.021-.346.03-.52.009-.186.028-.372.025-.559-.001-.069-.013-.138-.016-.207-.019-.489-.086-.977-.189-1.46-.03-.142-.051-.284-.088-.425-.034-.127-.079-.252-.118-.378 37.473-4.478 73.003-8.64 107.22-12.561 4.762-.545 8.805-2.909 11.386-6.655 2.63-3.82 3.402-8.565 2.175-13.364zm-122.531 35.855c-.015.135-.043.268-.066.402-.024.134-.045.268-.077.399-.03.121-.07.239-.107.358-.044.14-.089.281-.144.418-.04.099-.086.196-.131.293-.113.243-.233.481-.377.706-.013.021-.027.042-.041.063-1.113 1.688-3.113 2.864-5.8 3.406-.028.006-.058.01-.086.016-.436.085-.888.156-1.358.208l-94.083 11.035.004.033c-3.014.278-6.164.441-8.902.441h-.001c-.619 0-1.189-.008-1.714-.021.23-.132.455-.276.676-.43.007-.005.015-.01.022-.016.351-.247.687-.529 1.013-.83.051-.047.104-.092.154-.14.31-.298.606-.624.892-.972.056-.069.112-.138.168-.209.282-.358.553-.738.811-1.146.042-.066.081-.135.122-.202.267-.438.525-.896.766-1.388.111-.203.196-.421.288-.635.052-.12.115-.232.162-.356.098-.264.169-.539.24-.815.025-.096.062-.185.083-.282.066-.305.106-.607.135-.908.006-.065.012-.13.017-.195.021-.292.03-.582.018-.867-.001-.016.002-.032.001-.047-.002-.048-.013-.092-.016-.139-.016-.23-.042-.457-.078-.679-.013-.081-.02-.164-.035-.244-.012-.062-.03-.119-.044-.18-.042-.185-.09-.368-.146-.546-.027-.087-.052-.175-.082-.261-.027-.075-.058-.146-.088-.219-.032-.08-.07-.156-.105-.234-.067-.149-.132-.299-.209-.44-.054-.098-.113-.189-.171-.283-.035-.056-.07-.111-.107-.165-.078-.116-.157-.23-.242-.338-.003-.003-.005-.007-.008-.011-.03-.038-.052-.083-.083-.119l100.835-11.841.024-.003c.357-.05.711-.071 1.059-.071.07 0 .137.008.207.009.287.008.572.027.85.069.055.008.109.02.164.029.293.051.581.116.861.203.038.012.075.024.113.036.292.096.576.211.849.344.028.013.056.026.083.04.275.139.539.299.793.475.025.018.053.033.078.051.256.183.497.387.726.606.017.017.037.03.054.047.236.231.456.483.659.752.048.063.085.131.131.195.15.213.294.432.423.666.061.11.113.223.168.335.069.144.141.287.2.433.038.093.066.189.099.283.06.171.122.341.168.514.015.057.023.114.036.171.148.62.202 1.247.169 1.865-.009.111-.009.222-.02.331zm118.605-23.699c-2.227 3.232-5.734 5.274-9.877 5.75-34.422 3.944-70.176 8.133-107.898 12.642-.044-.072-.095-.14-.141-.211-.111-.172-.219-.347-.34-.509-.021-.028-.036-.058-.057-.086-.074-.097-.16-.178-.237-.271-.161-.195-.322-.39-.497-.569-.121-.124-.251-.233-.377-.348-.159-.144-.315-.292-.484-.424-.183-.144-.376-.269-.569-.397-.125-.083-.246-.172-.375-.248-.241-.143-.492-.263-.746-.381-.097-.045-.19-.097-.289-.139-.27-.113-.548-.204-.83-.29-.099-.03-.195-.068-.295-.095-.264-.07-.535-.118-.807-.164-.131-.022-.258-.053-.39-.07-.241-.03-.487-.037-.734-.049-.146-.007-.288-.029-.436-.029-.023 0-.046.005-.069.005-.389.003-.783.033-1.182.082-.04.005-.083.003-.122.009l-103.353 12.137c-.261.031-.452.039-.559.044-.122.005-.228.024-.325.049-2.596.034-4.95 2.26-5.613 5.326-.026.122-.05.246-.071.369-3.108.394-6.24.949-9.277 1.489-3.308.588-6.728 1.195-10.076 1.583-.003 0-.006.001-.009.001l-5.379.622.088.024c-44.126 5.386-84.586 10.28-122.695 14.839-.388.046-.778.093-1.165.139-2.475.296-4.937.59-7.392.884-.863.103-1.726.206-2.587.309-2.375.283-4.741.566-7.099.847-.781.093-1.561.186-2.341.279-2.534.302-5.064.603-7.579.902-.477.057-.962.086-1.442.086-8.157 0-15.605-8.271-16.957-18.829-3.419-26.703-6.957-53.857-10.377-80.118-3.286-25.22-6.683-51.298-9.971-76.943-6.052-47.21-12.377-98.594-19.336-157.087-.091-.762-.146-1.518-.174-2.265-.005-.132-.001-.261-.005-.392-.015-.641-.014-1.277.017-1.901.004-.087.011-.173.016-.26.04-.681.103-1.352.196-2.007.004-.032.009-.063.013-.095.526-3.589 1.836-6.736 3.821-8.971 2.018-2.272 4.591-3.473 7.44-3.473.253 0 .51.009.769.028l54.189 3.993c44.652 3.292 89.324 6.586 133.95 9.843 59.561 4.347 118.27 8.361 188.097 13.05 8.242.553 17.278 8.354 19.733 17.034 11.099 39.24 22.168 80.059 32.898 121.322 9.336 35.901 18.687 72.476 27.729 107.846l3.44 13.459c1.077 4.195.415 8.325-1.862 11.629z"/></svg>