<svg height="960" viewBox="0 0 960 960" width="960" xmlns="http://www.w3.org/2000/svg"><g fill="none" fill-rule="evenodd" transform="matrix(-1 0 0 1 939 136.551615)"><path d="m347.521717.26045049c25.331791-1.32688324 47.646784 2.51400392 59.451537 9.29023783 20.836311-.04656242 37.652038.97985558 50.448127 3.07958418 24.469509 1.1075423 48.559776 5.4209834 71.733349 12.6485349l98.868556-16.83016928c82.812197 6.10008068 159.296498 51.31973558 204.055412 122.72963188l4.968233 270.873446c-26.137484 45.231136-65.799185 82.837986-115.590471 106.164016l-59.197102 19.650137c-4.257043.876598-8.516496 1.644132-12.775095 2.304262-10.013494 9.476151-20.760564 18.256117-32.192543 26.234842-65.965027 49.356191-135.50195 85.940305-208.614209 109.748793-6.021387 2.53471-12.189114 4.824357-18.494503 6.865746-146.762226 47.514463-312.5277821-57.45874-370.2479944-234.464263-57.7197686-177.005667 14.4631927-359.0152378 161.2253374-406.5299512 23.328262-7.5525551 47.136661-11.2523598 70.914958-11.4225305 12.439176-1.391167 24.386383-2.6510263 35.841625-3.7795722 10.483124-8.50803677 33.106617-15.17476651 59.604783-16.56274461z" stroke="#000" stroke-linecap="round" stroke-linejoin="round" stroke-width="40"/><g fill="#000" transform="translate(259.753124 186.175897)"><ellipse cx="243.518682" cy="144.843997" rx="31.435801" ry="41.73512" stroke="#000" stroke-width="22" transform="matrix(.95105652 -.30901699 .30901699 .95105652 -32.840604 82.340581)"/><path d="m44.8971685 155.13184c16.2397183-5.150133 23.761908-26.27535 16.801281-47.184493-6.960627-20.9091426-25.7682229-33.6843443-42.0079412-28.5342114-16.23971837 5.1501329-23.76190813 26.2753494-16.80128112 47.1844924s25.76822292 33.684344 42.00794132 28.534212z" stroke="#000" stroke-width="22"/><path d="m573.654101 29.2625372c7.559098-2.3612502 17.392192-5.203395 29.499282-8.5264344 18.160634-4.9845592 32.077045 3.1186776 38.064018 18.8917591 5.986974 15.7730814.440534 48.3882366-35.451661 58.8203193-23.928129 6.9547218-34.632009 10.5628238-32.111639 10.8243068z"/><path d="m582.787912 14.0365559c10.366764-3.253278 23.852151-7.16912193 40.456159-11.74753186 24.906013-6.8676149 43.991376 4.29684477 52.202082 26.02864586 8.210706 21.7318012.604161 66.6682371-48.61942 81.0413291-32.815721 9.582061-47.495328 14.553224-44.038821 14.913489z"/></g><g stroke="#000" stroke-linecap="round" stroke-linejoin="round"><g stroke-width="20"><path d="m830.044818 136.264387-140.30185 35.086706"/><path d="m478.827481 611.510954c-13.352346 8.075695-29.516189 11.495161-48.491532 10.258398-85.33738-6.751481-168.61241-66.050433-218.017598-157.174819l10.713397-2.639523v-101.892331l-47.405956-23.632139-4.696436.743583c-4.567251-34.612345-3.892061-68.547345 1.507608-100.448275l25.815824-3.960941 21.930687-3.35544 2.848273-83.25641-21.081224 2.960898c20.007526-37.213007 48.299547-67.775782 83.446584-87.9440316l1.067159-.6079735c35.958455-19.1988105 64.074243-23.7339725 84.347363-13.605486"/><path d="m625.070911 539.001354c82.952355-79.73188 118.42259-200.746118 81.234155-315.181207-30.033075-92.416844-100.933457-160.4586749-187.144924-191.5204404"/><path d="m837.104915 397.690137-147.360498 52.69183"/><path d="m69.9923476 352.934881 105.8852764-16.816059 47.53833 23.75517v102.422798l-110.421081 27.245638c-19.3602143-32.464025-32.2560952-64.627069-38.6876428-96.489131l-.7349705.164106z"/><path d="m223.415954 146.358045-110.083908 15.441978c-19.8436861 30.032081-32.9444311 60.212559-39.3022351 90.541435 45.6842801-7.134979 94.5272421-14.668518 146.5288871-22.600618z"/></g><path d="m390.372263 673.36905c146.720932-47.533951 218.884065-229.616271 161.180869-406.692243-57.703196-177.0759724-223.421695-282.0905289-370.142627-234.5565771-146.7209325 47.5339518-218.8840659 229.6162711-161.1808698 406.6922431 57.703196 177.075973 223.4216948 282.090529 370.1426278 234.556577z" stroke-width="40"/><path d="m385.409192 674.98165c143.982737-46.644259 213.928421-228.006085 156.228057-405.082977-57.700364-177.0768927-221.196822-282.8134343-365.179559-236.1691759-143.9827378 46.6442583-213.9284215 228.0060849-156.2280575 405.0829769 57.700364 177.076893 221.1968215 282.813434 365.1795595 236.169176z" stroke-width="40"/><path d="m321.873873 41.3839991c61.196961-14.2276784 110.992342-20.0991681 149.386143-17.6144691" stroke-width="20"/></g></g></svg>