<svg height="960" viewBox="0 0 960 960" width="960" xmlns="http://www.w3.org/2000/svg"><g fill="none" fill-rule="evenodd" stroke="#000" transform="matrix(-1 0 0 1 924.39086 26.742654)"><path d="m884.868138 196.657189c-5.979642 40.46509-19.512518 87.228249-40.179001 139.029862-27.537828 69.016334-66.038333 143.963349-117.809448 229.144726-38.710318 56.892552-77.787806 107.2771-116.026046 149.631611-47.522422 52.588872-95.569374 94.943382-142.881984 125.856402-54.970749 35.89899-110.361121 57.364907-164.649981 63.662976-29.740854 3.463937-59.796425 2.466743-89.275014-2.991583-31.26199-5.773229-62.838699-16.689881-93.838424-32.435053-33.2552053-16.899817-60.0062376-40.255154-79.6236612-69.383721-17.7815685-26.399404-29.8457595-57.889746-35.93030805-93.578801-5.50756546-32.277601-6.13700151-67.914172-1.83585515-105.912519 3.88152233-34.219505 11.592114-69.593657 22.9219629-105.020292 25.2823482-78.935792 69.3953249-153.830323 131.1325115-222.689206 28.272169-31.542826 60.216049-61.616103 94.939938-89.485056 33.097845-26.556856 68.870794-51.171807 106.269787-73.110079 71.388539-41.8821552 148.022378-73.7398851 221.509037-92.0042837 46.420909-11.54645894 90.219168-17.3721723 129.558921-17.3721723 22.030262 0 42.59184 1.83693665 61.474921 5.51080994 27.170657 5.30087436 49.882808 14.64300926 67.611923 27.76398536 16.312884 12.0712979 28.7967 27.7639853 37.084274 46.6057069 13.375516 30.1257608 16.57515 69.4362048 9.546447 116.7766868z" stroke-linecap="round" stroke-linejoin="round" stroke-width="40"/><g fill="#020204" fill-rule="nonzero" stroke-width="5"><path d="m149.938547 403.504586c6.815837-1.944897 13.995878-2.680804 21.071861-1.997462 7.023954.683342 13.371527 2.733369 18.93866 5.782128 5.931339 3.311582 10.92615 7.727025 14.776317 12.93094 3.433933 4.678267 6.035397 10.092441 7.596276 16.032263.624352 1.734639 1.092615 3.521842 1.508849 5.309045 1.50885 6.5706 1.664938 13.456588.520293 20.395141-1.144644 7.043683-3.590021 13.877107-7.180041 20.237448-3.590021 6.36034-8.220627 12.089903-13.787761 16.978429-5.775251 5.098786-12.278911 9.09371-19.302865 11.879645-7.075983 2.785934-14.360083 4.205183-21.644183 4.205183-7.700334 0-14.984434-1.576944-21.696212-4.678267-6.763807-3.101323-12.539058-7.67446-17.169664-13.509153-4.630607-5.887257-7.804393-12.668116-9.365272-20.184882-1.560878-7.359072-1.45682-15.033532.260147-22.813122.468263-2.102592 1.040585-4.205184 1.716966-6.255211 1.768996-6.518035 4.578577-12.615552 8.220627-18.082291 4.318431-6.46547 9.729477-12.089903 15.920962-16.557911 5.983368-4.362878 12.695145-7.67446 19.61504-9.671923zm16.454476 17.75276c-3.839276 0-7.731145.575672-11.675607 1.674682-5.364469 1.51768-10.360787 3.925035-14.88377 7.169731-4.785947 3.454031-8.888188 7.640736-12.148943 12.455446-3.208163 4.762376-5.417061 9.891089-6.626696 15.229137-1.209635 5.390382-1.262228 10.623762-.210372 15.595474.105186.366337.157779.680339.262965 1.046676 1.209635 3.244696 2.840012 6.175389 4.943725 8.792079 2.997791 3.768034 6.942253 6.803395 11.517829 8.896747 4.47039 2.041018 9.624487 3.140028 15.304513 3.140028 5.627432 0 11.044493-1.09901 16.145997-3.087694 5.417061-2.093352 10.41338-5.181047 14.778585-8.949081 4.207426-3.663366 7.836331-7.954738 10.571158-12.769448 1.420006-2.459689 2.577048-5.024045 3.471126-7.640736.262964-1.203677.525928-2.355021.7363-3.558698.788892-4.81471.683706-9.472419-.315557-13.868459-.946671-4.291372-2.78742-8.216407-5.364469-11.670438-2.629641-3.506365-5.942989-6.33239-9.729672-8.425743-3.89187-2.093352-8.309667-3.401697-13.095614-3.872701-1.209635-.104668-2.41927-.157002-3.681498-.157002z"/><path d="m375.913426 164.64603c9.234672 2.775094 17.165012 5.229984 24.677965 7.738242-7.14774 8.592116-14.138961 18.144842-20.973662 28.551442-.782599 1.174078-1.147812 2.454891-1.252159 3.78907-1.043466 1.814484-1.356505 3.895805-.991292 5.977125.417386 2.294789 1.721718 4.216007 3.599957 5.550187 1.408678.960609 3.02605 1.494281 4.695596 1.494281.573906 0 1.095639-.053367 1.669545-.160102 2.243451-.426937 4.12169-1.761117 5.426022-3.682335 8.504246-13.07496 17.478052-24.762373 26.66055-34.795403 13.669402 5.069882 27.91271 10.993639 43.512523 18.038107 4.27821 1.921219 9.286845-.053367 11.217257-4.429476 1.147813-2.614992.886946-5.49682-.417386-7.791609-.15652-2.775093-1.773892-5.336718-4.382556-6.510796-12.730283-5.710288-23.94754-10.459968-34.382198-14.569241 7.512954-6.564163 15.286774-12.221085 23.112767-16.864029 4.069517-2.401524 5.478196-7.684875 3.130398-11.847515-.052174-1.120711-.365213-2.241422-.93912-3.308765-2.034758-3.628969-6.521661-4.856414-10.069444-2.828461-12.156377 7.097835-23.79102 16.276991-35.008277 27.430732-11.686817-4.109273-22.956247-7.631507-34.851757-11.207108-3.912997-1.174078-7.982513 1.12071-9.130325 5.123249-.15652.533672-.260867 1.120711-.260867 1.654383-.31304.587039-.626079 1.227445-.782599 1.867851-.62608 2.241422-.365213 4.589578.730426 6.617531.991292 2.027953 2.817357 3.468867 5.008636 4.16264z"/><path d="m670.554034 263.909734c-19.483157-11.899341-37.810978-21.87608-55.193525-30.293955-17.435062-8.469836-33.872334-15.276882-49.521878-20.888798-3.833613-1.40298-8.087348.571584-9.505259 4.416785-.262577.675509-.367607 1.402979-.420122 2.078488-.262577.415697-.472638.831395-.630183 1.299054-1.627973 4.364824.682698 9.24927 5.093979 10.808135 16.01715 5.715841 31.719209 12.367 47.94642 20.213291 17.330031 8.417874 35.447792 18.342651 53.828128 29.514521 1.417912.831395 2.940854 1.247093 4.463796 1.247093 2.888339 0 5.671647-1.402979 7.247104-4.001089 1.680488-2.702033 1.627973-6.027613.157546-8.625722-.105031-2.234374-1.312881-4.416786-3.466006-5.767803z"/><path d="m271.023998 243.753812c1.435846-3.37413 5.167328-5.211706 8.748732-4.235244 11.773284 3.311328 24.802385 7.516188 39.191954 12.719703 14.441896 5.203514 29.930305 11.300561 46.412903 18.18602 1.517445.630729 2.825588 1.787066 3.662799 3.311327.523257.998655.837212 2.102431.889537 3.153646.052326.05256.104652.105121.104652.157682 1.09884 1.997309 1.360468 4.309982.73256 6.517533-.627909 2.207552-2.093029 3.994618-4.081406 5.045833-20.250048 11.19544-39.61056 22.39088-57.505952 33.270956-17.79074 10.774955-34.534967 21.549909-49.814073 31.904377l-.941863.630729-.052326-.05256c-1.151165.578168-2.459308.893532-3.767451.893532-.36628 0-.784885-.05256-1.151165-.105121-4.656988-.630729-7.901182-4.940711-7.273274-9.618618 2.668612-19.079553 6.017457-37.00277 9.941885-53.296603 1.988377-8.304599 4.133731-16.241273 6.488388-23.810022 2.563959-8.619963 5.337222-16.76688 8.319787-24.44075zm12.466706 16.503534c-3.825779 10.754641-7.28966 22.610977-10.288244 35.254238-2.223087 9.285714-4.239376 19.305891-6.100566 29.745762 10.805241-7.134786 22.127479-14.374495 34.070113-21.666666 12.356232-7.606941 25.332861-15.266344 38.929887-23.083132-9.305949-3.724778-18.146601-7.134786-26.366856-10.125101-10.753541-3.882163-20.938385-7.292171-30.244334-10.125101z"/><path d="m399.38972 511.673184c3.866467-.89072 8.046431-.366767 11.494902 1.729046l65.782186 39.872842c.313497.209581.522495.314372.574745.366767l.340661.234353c3.25254 2.301988 5.328415 5.656628 6.086034 9.353991 0 .104791.052249.209582.052249.314372.470246 1.047907.835993 2.095813 1.044991 3.248511.835993 4.086835.104499 8.330856-2.089982 12.050924l-.261248.366767c0 .104791-.052249.157186-.104499.209582l-1.14949 1.729045-.835993 1.257488v.052395c-.104499.104791-.156748.261977-.261247.366768l-.1045.10479c-.574745.890721-.835992 1.257488-.835992 1.257488l-32.812719 49.304-.574745.943116-13.532634 20.329386-.05225-.052395c-2.560228 3.458091-6.217696 5.920671-10.345411 6.968578-1.462987.366767-2.925975.576348-4.388962.576348-3.291722 0-6.478945-.943115-9.248171-2.776952-23.042053-15.404225-46.084105-30.808451-69.126157-46.160281-.417997-.261976-.731494-.523953-.940492-.681139-3.396221-2.619766-5.486203-6.549415-5.9042-11.003018-.313497-2.829347.156749-5.763486 1.306239-8.435647.417996-2.148208 1.306239-4.296417 2.612478-6.287439.313497-.471558.574745-.838325.783743-1.100302 17.608099-22.63478 35.163948-45.321955 52.772048-68.009131 2.455728-3.196114 6.008698-5.291927 9.718416-6.130253zm4.25457 19.584162h-.05249c-.20996.052647-.41992.210587-.577389.368526-17.269179 22.322148-34.590848 44.644295-51.912517 66.966443l66.76716 44.539002c.20996.15794.577389.15794.944818.052647.682369-.15794 1.312248-.631759 1.732167-1.263518v-.052647l12.965007-19.531879h.05249l12.650067-19.05806c11.001884-16.552083 13.336635-20.073086 13.524759-20.367907l.008319-.016199-.00976.014734c-.035199.050473-.130182.190774-.232783.342464l-.077565.114676c-.593116.876768-1.006967 1.481719 8.675321-13.09717l-2.257066-1.105578h.367429c-7.453566-4.580252-14.959623-9.107857-22.30821-13.53017-4.304172-2.579682-8.608344-5.159364-12.860027-7.739046z"/><path d="m590.301195 382.019881c-24.932085-.885907-51.487899-.260561-78.253226 2.553496-1.047566-3.752076-2.147511-7.504152-3.299834-11.256227-4.452158-14.851966-9.847127-29.182811-16.132526-42.940422-1.676107-3.699963-6.075887-5.31544-9.794748-3.647851-2.566538 1.19858-4.190266 3.647851-4.295023 6.305572-1.309458 2.292935-1.518972 5.159104-.366648 7.7126 6.599669 14.487181 12.256529 29.91238 16.813444 45.910814-24.460681 3.491515-48.816604 8.859068-71.915448 16.675892-2.933187.990131-4.871185 3.647851-5.02832 6.566132-.104757.156337-.157135.312673-.261892.416898-.995188 2.032374-1.152323 4.325309-.419026 6.461908 1.518971 4.429533 6.337778 6.826693 10.789936 5.31544 21.789385-7.347815 45.883417-12.871704 71.653556-16.311106 4.504537 20.01107 7.437723 41.324944 8.79956 63.316276.157135 2.240823 1.152323 4.325309 2.82843 5.836562 1.571349 1.407029 3.561726 2.136599 5.656859 2.136599h.523784c4.714049-.260561 8.275776-4.273197 8.013884-8.963292-1.414215-22.356117-4.347401-43.982665-8.799559-64.306408 23.51787-2.292935 48.030929-3.022505 72.910636-2.136598 4.71405.156336 8.642424-3.491515 8.799559-8.18161.052379-1.615477-.366648-3.178842-1.099945-4.481646-.157135-3.752075-3.247456-6.826693-7.123453-6.983029z"/></g></g></svg>